<svg version="1.2" xmlns="http://www.w3.org/2000/svg" viewBox="0 0 1024 1024" width="1024" height="1024">
	<title>RoseSMP (2)-ai</title>
	<defs>
		<linearGradient id="g1" x1="362.8" y1="414.4" x2="362.8" y2="383.6" gradientUnits="userSpaceOnUse">
			<stop offset="0" stop-color="#39405b"/>
			<stop offset="1" stop-color="#0f1116"/>
		</linearGradient>
		<linearGradient id="g2" x1="330.5" y1="393.5" x2="330.5" y2="359.5" gradientUnits="userSpaceOnUse">
			<stop offset="0" stop-color="#39405b"/>
			<stop offset="1" stop-color="#0f1116"/>
		</linearGradient>
		<linearGradient id="g3" x1="505.6" y1="383.5" x2="505.6" y2="335.1" gradientUnits="userSpaceOnUse">
			<stop offset="0" stop-color="#39405b"/>
			<stop offset="1" stop-color="#0f1116"/>
		</linearGradient>
		<linearGradient id="g4" x1="468.9" y1="376.7" x2="468.9" y2="297.5" gradientUnits="userSpaceOnUse">
			<stop offset="0" stop-color="#39405b"/>
			<stop offset="1" stop-color="#0f1116"/>
		</linearGradient>
		<linearGradient id="g5" x1="531.8" y1="376.7" x2="531.8" y2="297.5" gradientUnits="userSpaceOnUse">
			<stop offset="0" stop-color="#39405b"/>
			<stop offset="1" stop-color="#0f1116"/>
		</linearGradient>
		<linearGradient id="g6" x1="566.6" y1="376.7" x2="566.6" y2="297.5" gradientUnits="userSpaceOnUse">
			<stop offset="0" stop-color="#39405b"/>
			<stop offset="1" stop-color="#0f1116"/>
		</linearGradient>
		<linearGradient id="g7" x1="240.6" y1="376.7" x2="240.6" y2="297.5" gradientUnits="userSpaceOnUse">
			<stop offset="0" stop-color="#39405b"/>
			<stop offset="1" stop-color="#0f1116"/>
		</linearGradient>
		<linearGradient id="g8" x1="286.2" y1="376.7" x2="286.2" y2="297.5" gradientUnits="userSpaceOnUse">
			<stop offset="0" stop-color="#39405b"/>
			<stop offset="1" stop-color="#0f1116"/>
		</linearGradient>
		<linearGradient id="g9" x1="322.8" y1="376.7" x2="322.8" y2="297.5" gradientUnits="userSpaceOnUse">
			<stop offset="0" stop-color="#39405b"/>
			<stop offset="1" stop-color="#0f1116"/>
		</linearGradient>
		<linearGradient id="g10" x1="395.8" y1="376.7" x2="395.8" y2="297.5" gradientUnits="userSpaceOnUse">
			<stop offset="0" stop-color="#39405b"/>
			<stop offset="1" stop-color="#0f1116"/>
		</linearGradient>
		<linearGradient id="g11" x1="636.1" y1="376.7" x2="636.1" y2="297.5" gradientUnits="userSpaceOnUse">
			<stop offset="0" stop-color="#39405b"/>
			<stop offset="1" stop-color="#0f1116"/>
		</linearGradient>
		<linearGradient id="g12" x1="705.7" y1="376.7" x2="705.7" y2="297.5" gradientUnits="userSpaceOnUse">
			<stop offset="0" stop-color="#39405b"/>
			<stop offset="1" stop-color="#0f1116"/>
		</linearGradient>
		<linearGradient id="g13" x1="740.5" y1="376.7" x2="740.5" y2="297.5" gradientUnits="userSpaceOnUse">
			<stop offset="0" stop-color="#39405b"/>
			<stop offset="1" stop-color="#0f1116"/>
		</linearGradient>
		<linearGradient id="g14" x1="240.6" y1="409.4" x2="240.6" y2="349.8" gradientUnits="userSpaceOnUse">
			<stop offset="0" stop-color="#c9c6d3"/>
			<stop offset="1" stop-color="#9098a2"/>
		</linearGradient>
		<linearGradient id="g15" x1="777.8" y1="356.4" x2="777.8" y2="411.8" gradientUnits="userSpaceOnUse">
			<stop offset="0" stop-color="#ffffff" stop-opacity="0"/>
			<stop offset="1" stop-color="#ffffff"/>
		</linearGradient>
		<linearGradient id="g16" x1="783.4" y1="315.3" x2="783.4" y2="368.8" gradientUnits="userSpaceOnUse">
			<stop offset="0" stop-color="#ffffff" stop-opacity="0"/>
			<stop offset="1" stop-color="#ffffff"/>
		</linearGradient>
		<linearGradient id="g17" x1="527.3" y1="339.4" x2="527.3" y2="374.4" gradientUnits="userSpaceOnUse">
			<stop offset="0" stop-color="#ffffff" stop-opacity="0"/>
			<stop offset="1" stop-color="#ffffff"/>
		</linearGradient>
		<linearGradient id="g18" x1="604.9" y1="293.4" x2="608.8" y2="328.9" gradientUnits="userSpaceOnUse">
			<stop offset="0" stop-color="#250921"/>
			<stop offset="1" stop-color="#195733"/>
		</linearGradient>
		<linearGradient id="g19" x1="581.3" y1="364.5" x2="578.4" y2="337.8" gradientUnits="userSpaceOnUse">
			<stop offset="0" stop-color="#60c260"/>
			<stop offset="1" stop-color="#195733"/>
		</linearGradient>
		<linearGradient id="g20" x1="574.9" y1="294.9" x2="571.5" y2="331.3" gradientUnits="userSpaceOnUse">
			<stop offset="0" stop-color="#250921"/>
			<stop offset="1" stop-color="#195733"/>
		</linearGradient>
		<linearGradient id="g21" x1="640.9" y1="370.7" x2="643.8" y2="340" gradientUnits="userSpaceOnUse">
			<stop offset="0" stop-color="#60c260"/>
			<stop offset="1" stop-color="#195733"/>
		</linearGradient>
		<linearGradient id="g22" x1="449" y1="292.3" x2="456.3" y2="329.9" gradientUnits="userSpaceOnUse">
			<stop offset="0" stop-color="#250921"/>
			<stop offset="1" stop-color="#195733"/>
		</linearGradient>
		<linearGradient id="g23" x1="432.3" y1="369.6" x2="426.4" y2="339.3" gradientUnits="userSpaceOnUse">
			<stop offset="0" stop-color="#60c260"/>
			<stop offset="1" stop-color="#195733"/>
		</linearGradient>
		<linearGradient id="g24" x1="611.6" y1="300.6" x2="610.3" y2="337.1" gradientUnits="userSpaceOnUse">
			<stop offset="0" stop-color="#250921"/>
			<stop offset="1" stop-color="#195733"/>
		</linearGradient>
		<linearGradient id="g25" x1="536.5" y1="367.4" x2="537.5" y2="336.5" gradientUnits="userSpaceOnUse">
			<stop offset="0" stop-color="#60c260"/>
			<stop offset="1" stop-color="#195733"/>
		</linearGradient>
		<linearGradient id="g26" x1="449.2" y1="296" x2="452.9" y2="332.3" gradientUnits="userSpaceOnUse">
			<stop offset="0" stop-color="#250921"/>
			<stop offset="1" stop-color="#195733"/>
		</linearGradient>
		<linearGradient id="g27" x1="383.9" y1="372.4" x2="380.7" y2="341.6" gradientUnits="userSpaceOnUse">
			<stop offset="0" stop-color="#60c260"/>
			<stop offset="1" stop-color="#195733"/>
		</linearGradient>
		<linearGradient id="g28" x1="833" y1="316.2" x2="833" y2="324.2" gradientUnits="userSpaceOnUse">
			<stop offset="0" stop-color="#250921"/>
			<stop offset="1" stop-color="#220e23" stop-opacity="0"/>
		</linearGradient>
		<linearGradient id="g29" x1="544.5" y1="310.2" x2="544.5" y2="196.7" gradientUnits="userSpaceOnUse">
			<stop offset="0" stop-color="#db2a2e"/>
			<stop offset="1" stop-color="#72133a"/>
		</linearGradient>
		<linearGradient id="g30" x1="197.4" y1="310.2" x2="197.4" y2="196.7" gradientUnits="userSpaceOnUse">
			<stop offset="0" stop-color="#db2a2e"/>
			<stop offset="1" stop-color="#72133a"/>
		</linearGradient>
		<linearGradient id="g31" x1="499" y1="265.4" x2="499" y2="247.1" gradientUnits="userSpaceOnUse">
			<stop offset="0" stop-color="#250921"/>
			<stop offset="1" stop-color="#195733"/>
		</linearGradient>
		<linearGradient id="g32" x1="453.4" y1="222" x2="458" y2="207.5" gradientUnits="userSpaceOnUse">
			<stop offset="0" stop-color="#250921"/>
			<stop offset="1" stop-color="#195733"/>
		</linearGradient>
		<linearGradient id="g33" x1="457.4" y1="226.5" x2="457.4" y2="204.1" gradientUnits="userSpaceOnUse">
			<stop offset="0" stop-color="#4aa356"/>
			<stop offset="1" stop-color="#195733"/>
		</linearGradient>
		<linearGradient id="g34" x1="522.4" y1="231.4" x2="522.4" y2="252.8" gradientUnits="userSpaceOnUse">
			<stop offset="0" stop-color="#4aa356"/>
			<stop offset="1" stop-color="#195733"/>
		</linearGradient>
		<linearGradient id="g35" x1="456" y1="262.1" x2="456" y2="295.1" gradientUnits="userSpaceOnUse">
			<stop offset="0" stop-color="#4aa356"/>
			<stop offset="1" stop-color="#195733"/>
		</linearGradient>
		<linearGradient id="g36" x1="500.8" y1="278.6" x2="500.8" y2="304.1" gradientUnits="userSpaceOnUse">
			<stop offset="0" stop-color="#4aa356"/>
			<stop offset="1" stop-color="#195733"/>
		</linearGradient>
		<linearGradient id="g37" x1="486.3" y1="345.8" x2="486.3" y2="294.6" gradientUnits="userSpaceOnUse">
			<stop offset="0" stop-color="#250921"/>
			<stop offset="1" stop-color="#195733"/>
		</linearGradient>
		<linearGradient id="g38" x1="427.8" y1="345.8" x2="427.8" y2="294.6" gradientUnits="userSpaceOnUse">
			<stop offset="0" stop-color="#250921"/>
			<stop offset="1" stop-color="#1a5228"/>
		</linearGradient>
		<linearGradient id="g39" x1="206" y1="282.7" x2="206" y2="214.2" gradientUnits="userSpaceOnUse">
			<stop offset="0" stop-color="#251b4d" stop-opacity=".7"/>
			<stop offset="1" stop-color="#221947" stop-opacity=".3"/>
		</linearGradient>
	</defs>
	<style>
		.s0 { fill: #161519 } 
		.s1 { fill: url(#g1) } 
		.s2 { fill: url(#g2) } 
		.s3 { fill: url(#g3) } 
		.s4 { fill: url(#g4) } 
		.s5 { fill: url(#g5) } 
		.s6 { fill: url(#g6) } 
		.s7 { fill: url(#g7) } 
		.s8 { fill: url(#g8) } 
		.s9 { fill: url(#g9) } 
		.s10 { fill: url(#g10) } 
		.s11 { fill: url(#g11) } 
		.s12 { fill: url(#g12) } 
		.s13 { fill: url(#g13) } 
		.s14 { fill: url(#g14) } 
		.s15 { opacity: .7;mix-blend-mode: soft-light;fill: url(#g15) } 
		.s16 { opacity: .7;mix-blend-mode: overlay;fill: #ffffff } 
		.s17 { opacity: .5;mix-blend-mode: overlay;fill: url(#g16) } 
		.s18 { opacity: .5;mix-blend-mode: overlay;fill: url(#g17) } 
		.s19 { fill: #330824 } 
		.s20 { fill: url(#g18) } 
		.s21 { fill: url(#g19) } 
		.s22 { opacity: .3;mix-blend-mode: overlay;fill: #000000 } 
		.s23 { opacity: .5;mix-blend-mode: overlay;fill: #ffffff } 
		.s24 { fill: url(#g20) } 
		.s25 { fill: url(#g21) } 
		.s26 { fill: url(#g22) } 
		.s27 { fill: url(#g23) } 
		.s28 { fill: url(#g24) } 
		.s29 { fill: url(#g25) } 
		.s30 { fill: url(#g26) } 
		.s31 { fill: url(#g27) } 
		.s32 { fill: url(#g28) } 
		.s33 { fill: #700327 } 
		.s34 { fill: url(#g29) } 
		.s35 { fill: #5f0428 } 
		.s36 { fill: #540423 } 
		.s37 { fill: #330838 } 
		.s38 { fill: url(#g30) } 
		.s39 { opacity: .3;mix-blend-mode: multiply;fill: #330824 } 
		.s40 { fill: #0a2120 } 
		.s41 { fill: url(#g31) } 
		.s42 { fill: url(#g32) } 
		.s43 { fill: url(#g33) } 
		.s44 { fill: url(#g34) } 
		.s45 { fill: url(#g35) } 
		.s46 { fill: url(#g36) } 
		.s47 { fill: url(#g37) } 
		.s48 { fill: url(#g38) } 
		.s49 { opacity: .3;mix-blend-mode: soft-light;fill: #000000 } 
		.s50 { opacity: .5;mix-blend-mode: overlay;fill: url(#g39) } 
	</style>
	<g id="Шар 5">
		<g id="&lt;Group&gt;">
			<path id="&lt;Path&gt;" class="s0" d="m786.5 345.3l-5.7 15-0.4 1-3.9 10.5-2.7 7h-1.3l0.3 2.6-12.8 33.7-1.1 3.3h-3.6-64.4-30.5-0.1-99.7-0.4l0.4-5.2-0.2-7.4h-5.8l-0.8 12.6h-34.4-0.1l0.1-5.2-0.1-14h-6.4v19.2h-34.7v-4.9l-0.4-7.7h-8.4l-0.6-11.3-0.4-6.9-1.2-20.5-0.2-2.6h-10.5l-1.5 53.9h-34l-7.3-53.9h-5.6l-2.7 53.9h-63.1l-2.9-0.8-0.1 0.8h-33l-4-12.6h-3l-1.3 12.6h-32.7l-9-23.6-18.8-49.5 13.5-109.8h34.3l4.6 16.3h2.8l1.7-16.3h34.6l0.1 0.4v-0.4h138.9 35.9l0.4 24.2h23.9l0.7-24.2h35 139.7v0.6l0.2-0.6h34.5l0.1 1 0.3-1h34.3z"/>
			<path id="&lt;Path&gt;" class="s0" d="m482.9 407.1l1.2-98.1h8l-0.9 98.1z"/>
			<path id="&lt;Path&gt;" class="s0" d="m532.8 407.1l-0.9-98.1h8l1.3 98.1z"/>
			<path id="&lt;Path&gt;" class="s0" d="m432.9 407.1l3.4-98.1h8l-3.1 98.1z"/>
			<path id="&lt;Path&gt;" class="s0" d="m574.5 407.1l-2.7-98.1h7.9l3.1 98.1z"/>
			<path id="&lt;Path&gt;" class="s0" d="m599.4 407.1l-3.8-98.1h8l4.2 98.1z"/>
			<path id="&lt;Path&gt;" class="s0" d="m641.1 407.1l-5.6-98.1h7.9l6 98.1z"/>
			<path id="&lt;Path&gt;" class="s0" d="m664.6 413.4l-6.6-97.5 1.4-6.9 6.7 98.1z"/>
			<path id="&lt;Path&gt;" class="s0" d="m666.1 407.1l-6.7-98.1h7.9l7.1 98.1z"/>
			<path id="&lt;Path&gt;" class="s0" d="m707.7 407.1l-8.5-98.1h8l8.9 98.1z"/>
			<path id="&lt;Path&gt;" class="s0" d="m730.6 413.4l-9.5-97.5 2-6.9 9.6 98.1z"/>
			<path id="&lt;Path&gt;" class="s0" d="m732.7 407.1l-9.6-98.1h7.9l10 98.1z"/>
			<path id="&lt;Path&gt;" class="s0" d="m272.3 400.7l10.6-98.7h8l-10.2 98.7z"/>
			<path id="&lt;Path&gt;" class="s0" d="m314.4 400.7l8.7-98.7h8l-8.3 98.7z"/>
			<path id="&lt;Path&gt;" class="s0" d="m507.8 400.8l0.2-98.8 0.1 14-0.2 97.4z"/>
			<path id="&lt;Path&gt;" class="s0" d="m499.4 400.8l0.6-98.8h8l-0.2 98.8z"/>
			<path id="&lt;Path&gt;" class="s0" d="m339.6 400.7l7.6-98.7h8l-7.2 98.7z"/>
			<path id="&lt;Path&gt;" class="s0" d="m398.5 400.7l5-98.7 2 13.9-4.8 97.5z"/>
			<path id="&lt;Path&gt;" class="s1" d="m364.8 400.7l6.5-98.7h32.2l-5 98.7z"/>
			<path id="&lt;Path&gt;" class="s0" d="m582.8 407.1l-3.1-98.1 0.7-7 3.1 98.7z"/>
			<path id="&lt;Path&gt;" class="s0" d="m583.5 400.7l-3.1-98.7h8l3.5 98.7z"/>
			<path id="&lt;Path&gt;" class="s0" d="m599.4 407.1l-3.8-98.1 0.8-7 3.9 98.7z"/>
			<path id="&lt;Path&gt;" class="s0" d="m617.1 400.7l-4.6-98.7h8l5 98.7z"/>
			<path id="&lt;Path&gt;" class="s0" d="m607.8 407.1l-4.2-98.1 1.7-14.2 4.4 99.4z"/>
			<path id="&lt;Path&gt;" class="s0" d="m617.1 400.7l-4.6-98.7 1-7.2 4.7 99.4z"/>
			<path id="&lt;Path&gt;" class="s0" d="m609.7 394.2l-4.4-99.4h8.2l4.7 99.4z"/>
			<path id="&lt;Path&gt;" class="s0" d="m631.6 413.4l-5.2-97.5 3.3-21.1 5.5 99.4z"/>
			<path id="&lt;Path&gt;" class="s0" d="m641.1 407.1l-5.6-98.1 2.3-14.2 5.9 99.4z"/>
			<path id="&lt;Path&gt;" class="s0" d="m635.2 394.2l-5.5-99.4h8.1l5.9 99.4z"/>
			<path id="&lt;Path&gt;" class="s0" d="m610.7 387.5l-4.5-100h16.4l5.2 100z"/>
			<path id="&lt;Path&gt;" class="s0" d="m610.7 387.5l-4.5-100 1-7.5 4.5 100.8z"/>
			<path id="&lt;Path&gt;" class="s0" d="m611.7 380.8l-4.5-100.8h8.2l4.9 100.8z"/>
			<path id="&lt;Path&gt;" class="s0" d="m620.3 380.8l-4.9-100.8 1.1-7.6 5 101.4z"/>
			<path id="&lt;Path&gt;" class="s0" d="m621.5 373.8l-5-101.4h8.3l5.4 101.4z"/>
			<path id="&lt;Path&gt;" class="s0" d="m635.2 394.2l-5.5-99.4 3.5-22.4 5.8 101.4z"/>
			<path id="&lt;Path&gt;" class="s0" d="m613.7 366.8l-4.7-102.1h8.5l5.1 102.1z"/>
			<path id="&lt;Path&gt;" class="s0" d="m613.7 366.8l-4.7-102.1 1-7.9 4.8 102.7z"/>
			<path id="&lt;Path&gt;" class="s0" d="m622.6 366.8l-5.1-102.1 1-7.9 5.3 102.7z"/>
			<path id="&lt;Path&gt;" class="s0" d="m614.8 359.5l-4.8-102.7h8.5l5.3 102.7z"/>
			<path id="&lt;Path&gt;" class="s0" d="m591.9 400.7l-3.5-98.7h8l3.9 98.7z"/>
			<path id="&lt;Path&gt;" class="s0" d="m649.4 407.1l-6-98.1 1.3-7 6.1 98.7z"/>
			<path id="&lt;Path&gt;" class="s0" d="m650.8 400.7l-6.1-98.7h8l6.5 98.7z"/>
			<path id="&lt;Path&gt;" class="s0" d="m674.4 407.1l-7.1-98.1 1.5-7 7.2 98.7z"/>
			<path id="&lt;Path&gt;" class="s0" d="m676 400.7l-7.2-98.7h16.1l7.9 98.7z"/>
			<path id="&lt;Path&gt;" class="s0" d="m697.6 413.4l-8-97.5 3.3-13.9 8.4 98.7z"/>
			<path id="&lt;Path&gt;" class="s0" d="m707.7 407.1l-8.5-98.1 1.8-7 8.7 98.7z"/>
			<path id="&lt;Path&gt;" class="s0" d="m701.3 400.7l-8.4-98.7h8.1l8.7 98.7z"/>
			<path id="&lt;Path&gt;" class="s0" d="m716.1 407.1l-8.9-98.1 1.8-7 9.1 98.7z"/>
			<path id="&lt;Path&gt;" class="s0" d="m718.1 400.7l-9.1-98.7h8l9.5 98.7z"/>
			<path id="&lt;Path&gt;" class="s0" d="m751.7 400.7l-10.5-98.7h8l10.9 98.7z"/>
			<path id="&lt;Path&gt;" class="s0" d="m269.9 394.2l10.8-99.4 2.2 7.2-10.6 98.7z"/>
			<path id="&lt;Path&gt;" class="s0" d="m261.4 394.2l11.2-99.4h8.1l-10.8 99.4z"/>
			<path id="&lt;Path&gt;" class="s0" d="m278.4 394.2l10.4-99.4 2.1 7.2-10.2 98.7z"/>
			<path id="&lt;Path&gt;" class="s0" d="m286.9 394.2l10-99.4 6 21.2-9.4 97.4z"/>
			<path id="&lt;Path&gt;" class="s0" d="m278.4 394.2l10.4-99.4h8.1l-10 99.4z"/>
			<path id="&lt;Path&gt;" class="s0" d="m312.4 394.2l8.9-99.4 1.8 7.2-8.7 98.7z"/>
			<path id="&lt;Path&gt;" class="s0" d="m303.9 394.2l9.3-99.4h8.1l-8.9 99.4z"/>
			<path id="&lt;Path&gt;" class="s0" d="m320.9 394.2l8.5-99.4 1.7 7.2-8.3 98.7z"/>
			<path id="&lt;Path&gt;" class="s0" d="m329.4 394.2l8.1-99.4 4.9 21.2-7.7 97.4z"/>
			<path id="&lt;Path&gt;" class="s0" d="m320.9 394.2l8.5-99.4h8.1l-8.1 99.4z"/>
			<path id="&lt;Path&gt;" class="s0" d="m473.8 394.2l1.7-99.4h8.1l-1.3 99.4z"/>
			<path id="&lt;Path&gt;" class="s0" d="m507.8 394.2l0.2-99.4v7.2l-0.2 98.8z"/>
			<path id="&lt;Path&gt;" class="s0" d="m524.4 413.4l-0.5-97.4 0.3-21.2 0.5 99.4z"/>
			<path id="&lt;Path&gt;" class="s0" d="m532.8 407.1l-0.9-98.1 0.4-14.2 0.9 99.4z"/>
			<path id="&lt;Path&gt;" class="s0" d="m524.7 394.2l-0.5-99.4h8.1l0.9 99.4z"/>
			<path id="&lt;Path&gt;" class="s0" d="m550.2 394.2l-1.7-99.4h8.2l2 99.4z"/>
			<path id="&lt;Path&gt;" class="s0" d="m439.8 394.2l3.2-99.4 1.3 14.2-3.1 98.1z"/>
			<path id="&lt;Path&gt;" class="s0" d="m448.3 394.2l2.8-99.4 1.7 21.1-2.7 97.5z"/>
			<path id="&lt;Path&gt;" class="s0" d="m439.8 394.2l3.2-99.4h8.1l-2.8 99.4z"/>
			<path id="&lt;Path&gt;" class="s0" d="m565.6 413.4l-2.3-97.5 1.5-21.1 2.4 99.4z"/>
			<path id="&lt;Path&gt;" class="s0" d="m574.5 407.1l-2.7-98.1 1.1-14.2 2.8 99.4z"/>
			<path id="&lt;Path&gt;" class="s0" d="m567.2 394.2l-2.4-99.4h8.1l2.8 99.4z"/>
			<path id="&lt;Path&gt;" class="s0" d="m652.2 394.2l-6.3-99.4h8.2l6.6 99.4z"/>
			<path id="&lt;Path&gt;" class="s0" d="m677.6 394.2l-7.3-99.4h8.1l7.7 99.4z"/>
			<path id="&lt;Path&gt;" class="s0" d="m701.3 400.7l-8.4-98.7 1.8-7.2 8.4 99.4z"/>
			<path id="&lt;Path&gt;" class="s0" d="m703.1 394.2l-8.4-99.4h8.1l8.8 99.4z"/>
			<path id="&lt;Path&gt;" class="s0" d="m732.7 407.1l-9.6-98.1 4-14.2 10 99.4z"/>
			<path id="&lt;Path&gt;" class="s0" d="m284.7 387.6l10.2-100.1 2 7.3-10 99.4z"/>
			<path id="&lt;Path&gt;" class="s0" d="m276.1 387.6l10.6-100.1h8.2l-10.2 100.1z"/>
			<path id="&lt;Path&gt;" class="s0" d="m301.8 387.6l9.4-100.1 2 7.3-9.3 99.4z"/>
			<path id="&lt;Path&gt;" class="s0" d="m293.2 387.6l9.9-100.1h8.1l-9.4 100.1z"/>
			<path id="&lt;Path&gt;" class="s0" d="m301.8 387.6l9.4-100.1h8.2l-9 100.1z"/>
			<path id="&lt;Path&gt;" class="s0" d="m473.4 387.6l1.7-100.1h8.2l-1.3 100.1z"/>
			<path id="&lt;Path&gt;" class="s0" d="m482 387.6l1.3-100.1 0.3 7.3-1.3 99.4z"/>
			<path id="&lt;Path&gt;" class="s0" d="m490.6 387.6l0.9-100.1 0.6 21.5-0.9 98.1z"/>
			<path id="&lt;Path&gt;" class="s0" d="m490.6 387.6l0.9-100.1h8.2l-0.6 100.1z"/>
			<path id="&lt;Path&gt;" class="s0" d="m499.1 387.6l0.6-100.1 0.3 14.5-0.6 98.8z"/>
			<path id="&lt;Path&gt;" class="s0" d="m507.7 387.6l0.2-100.1h8.2l0.2 100.1z"/>
			<path id="&lt;Path&gt;" class="s0" d="m524.9 387.6l-0.6-100.1h8.2l1 100.1z"/>
			<path id="&lt;Path&gt;" class="s0" d="m344.7 387.5l7.5-100 3 14.5-7.2 98.7z"/>
			<path id="&lt;Path&gt;" class="s0" d="m336.1 387.5l7.9-100h8.2l-7.5 100z"/>
			<path id="&lt;Path&gt;" class="s0" d="m361.9 387.5l6.7-100 2.7 14.5-6.5 98.7z"/>
			<path id="&lt;Path&gt;" class="s0" d="m344.7 387.5l7.5-100h16.4l-6.7 100z"/>
			<path id="&lt;Path&gt;" class="s0" d="m430.5 387.5l3.7-100 2.1 21.5-3.4 98.1z"/>
			<path id="&lt;Path&gt;" class="s0" d="m421.9 387.5l4.1-100h8.2l-3.7 100z"/>
			<path id="&lt;Path&gt;" class="s0" d="m576.4 387.5l-2.9-100h16.4l3.6 100z"/>
			<path id="&lt;Path&gt;" class="s0" d="m652.2 394.2l-6.3-99.4 1.3-7.3 6.4 100.1z"/>
			<path id="&lt;Path&gt;" class="s0" d="m653.6 387.6l-6.4-100.1h8.2l6.8 100.1z"/>
			<path id="&lt;Path&gt;" class="s0" d="m666.1 407.1l-6.7-98.1 4.2-21.5 7.1 100.1z"/>
			<path id="&lt;Path&gt;" class="s0" d="m677.6 394.2l-7.3-99.4 1.5-7.3 7.5 100.1z"/>
			<path id="&lt;Path&gt;" class="s0" d="m686.1 394.2l-7.7-99.4 1.6-7.3 7.9 100.1z"/>
			<path id="&lt;Path&gt;" class="s0" d="m679.3 387.6l-7.5-100.1h8.2l7.9 100.1z"/>
			<path id="&lt;Path&gt;" class="s0" d="m703.1 394.2l-8.4-99.4 1.7-7.3 8.7 100.1z"/>
			<path id="&lt;Path&gt;" class="s0" d="m711.6 394.2l-8.8-99.4 1.8-7.3 9.1 100.1z"/>
			<path id="&lt;Path&gt;" class="s0" d="m705.1 387.6l-8.7-100.1h8.2l9.1 100.1z"/>
			<path id="&lt;Path&gt;" class="s0" d="m713.7 387.6l-9.1-100.1h16.4l9.8 100.1z"/>
			<path id="&lt;Path&gt;" class="s0" d="m741 407.1l-10-98.1 6.4-21.5 10.6 100.1z"/>
			<path id="&lt;Path&gt;" class="s0" d="m751.7 400.7l-10.5-98.7 4.4-14.5 10.9 100.1z"/>
			<path id="&lt;Path&gt;" class="s0" d="m748 387.6l-10.6-100.1h8.2l10.9 100.1z"/>
			<path id="&lt;Path&gt;" class="s0" d="m256.3 380.8l11.6-100.7h16.6l-10.8 100.7z"/>
			<path id="&lt;Path&gt;" class="s0" d="m273.7 380.8l10.8-100.7 2.2 7.4-10.6 100.1z"/>
			<path id="&lt;Path&gt;" class="s0" d="m282.3 380.8l10.4-100.7 2.2 7.4-10.2 100.1z"/>
			<path id="&lt;Path&gt;" class="s0" d="m273.7 380.8l10.8-100.7h8.2l-10.4 100.7z"/>
			<path id="&lt;Path&gt;" class="s0" d="m334.3 380.8l8.1-100.8h8.3l-7.7 100.8z"/>
			<path id="&lt;Path&gt;" class="s0" d="m343 380.8l7.7-100.8 1.5 7.5-7.5 100z"/>
			<path id="&lt;Path&gt;" class="s0" d="m377.6 380.8l6.1-100.8 1.3 7.5-6 100z"/>
			<path id="&lt;Path&gt;" class="s0" d="m377.6 380.8l6.1-100.8h8.3l-5.7 100.8z"/>
			<path id="&lt;Path&gt;" class="s0" d="m386.3 380.8l5.7-100.8 1.2 7.5-5.6 100z"/>
			<path id="&lt;Path&gt;" class="s0" d="m473 380.8l1.8-100.7h8.3l-1.4 100.7z"/>
			<path id="&lt;Path&gt;" class="s0" d="m507.7 380.8l0.2-100.7v7.4l-0.2 100.1z"/>
			<path id="&lt;Path&gt;" class="s0" d="m490.3 380.8l1-100.7h16.6l-0.2 100.7z"/>
			<path id="&lt;Path&gt;" class="s0" d="m516.3 387.6l-0.2-100.1 0.1-7.4 0.1 100.7z"/>
			<path id="&lt;Path&gt;" class="s0" d="m507.7 380.8l0.2-100.7h8.3l0.1 100.7z"/>
			<path id="&lt;Path&gt;" class="s0" d="m421 380.8l4.1-100.8h8.3l-3.7 100.8z"/>
			<path id="&lt;Path&gt;" class="s0" d="m524.9 387.6l-0.6-100.1 0.1-7.4 0.6 100.7z"/>
			<path id="&lt;Path&gt;" class="s0" d="m533.5 387.6l-1-100.1 0.2-7.4 1 100.7z"/>
			<path id="&lt;Path&gt;" class="s0" d="m525 380.8l-0.6-100.7h8.3l1 100.7z"/>
			<path id="&lt;Path&gt;" class="s0" d="m447 380.8l2.9-100.8 1.2 14.8-2.8 99.4z"/>
			<path id="&lt;Path&gt;" class="s0" d="m438.3 380.8l3.4-100.8h8.2l-2.9 100.8z"/>
			<path id="&lt;Path&gt;" class="s0" d="m541.2 407.1l-1.3-98.1 1.1-28.9 1.3 100.7z"/>
			<path id="&lt;Path&gt;" class="s0" d="m550.2 394.2l-1.7-99.4 0.8-14.7 1.7 100.7z"/>
			<path id="&lt;Path&gt;" class="s0" d="m542.3 380.8l-1.3-100.7h8.3l1.7 100.7z"/>
			<path id="&lt;Path&gt;" class="s0" d="m576.4 387.5l-2.9-100 0.6-7.5 2.9 100.8z"/>
			<path id="&lt;Path&gt;" class="s0" d="m577 380.8l-2.9-100.8h16.5l3.7 100.8z"/>
			<path id="&lt;Path&gt;" class="s0" d="m662.2 387.6l-6.8-100.1 1.4-7.5 6.9 100.8z"/>
			<path id="&lt;Path&gt;" class="s0" d="m646.4 380.8l-6.1-100.8h16.5l6.9 100.8z"/>
			<path id="&lt;Path&gt;" class="s0" d="m670.7 387.6l-7.1-100.1 1.5-7.5 7.2 100.8z"/>
			<path id="&lt;Path&gt;" class="s0" d="m672.3 380.8l-7.2-100.8h8.3l7.6 100.8z"/>
			<path id="&lt;Path&gt;" class="s0" d="m689.7 380.8l-8.1-100.8h8.3l8.4 100.8z"/>
			<path id="&lt;Path&gt;" class="s0" d="m713.7 387.6l-9.1-100.1 1.9-7.5 9.2 100.8z"/>
			<path id="&lt;Path&gt;" class="s0" d="m715.7 380.8l-9.2-100.8h8.3l9.6 100.8z"/>
			<path id="&lt;Path&gt;" class="s0" d="m750.4 380.8l-10.8-100.8h16.5l11.6 100.8z"/>
			<path id="&lt;Path&gt;" class="s0" d="m271.2 373.8l11-101.4 2.3 7.7-10.8 100.7z"/>
			<path id="&lt;Path&gt;" class="s0" d="m253.7 373.8l11.8-101.4h16.7l-11 101.4z"/>
			<path id="&lt;Path&gt;" class="s0" d="m297.5 373.8l9.8-101.4 3.9 15.1-9.4 100.1z"/>
			<path id="&lt;Path&gt;" class="s0" d="m288.7 373.8l10.2-101.4h8.4l-9.8 101.4z"/>
			<path id="&lt;Path&gt;" class="s0" d="m306.2 373.8l9.5-101.4 3.7 15.1-9 100.1z"/>
			<path id="&lt;Path&gt;" class="s0" d="m297.5 373.8l9.8-101.4h8.4l-9.5 101.4z"/>
			<path id="&lt;Path&gt;" class="s0" d="m315 373.8l9-101.4h8.4l-8.7 101.4z"/>
			<path id="&lt;Path&gt;" class="s0" d="m323.7 373.8l8.7-101.4 5.1 22.4-8.1 99.4z"/>
			<path id="&lt;Path&gt;" class="s0" d="m321.8 366.8l8.8-102.1 1.8 7.7-8.7 101.4z"/>
			<path id="&lt;Path&gt;" class="s0" d="m330.6 366.8l8.4-102.1h8.5l-8 102.1z"/>
			<path id="&lt;Path&gt;" class="s0" d="m348.3 366.8l7.6-102.1h8.4l-7.1 102.1z"/>
			<path id="&lt;Path&gt;" class="s0" d="m346.6 359.5l7.7-102.7 1.6 7.9-7.6 102.1z"/>
			<path id="&lt;Path&gt;" class="s0" d="m346.6 359.5l7.7-102.7h8.5l-7.3 102.7z"/>
			<path id="&lt;Path&gt;" class="s0" d="m335.8 352.2l8.3-103.5 3.4 16-8 102.1z"/>
			<path id="&lt;Path&gt;" class="s0" d="m326.8 352.2l8.7-103.5h8.6l-8.3 103.5z"/>
			<path id="&lt;Path&gt;" class="s0" d="m367.5 373.8l6.6-101.4 2.7 15.1-6.4 100z"/>
			<path id="&lt;Path&gt;" class="s0" d="m385 373.8l5.8-101.4 1.2 7.6-5.7 100.8z"/>
			<path id="&lt;Path&gt;" class="s2" d="m390.8 272.4l-5.8 101.4h-17.5-35l8.2-101.4h33.4z"/>
			<path id="&lt;Path&gt;" class="s0" d="m542.7 373.9l-1.4-101.5h8.3l1.8 101.5z"/>
			<path id="&lt;Path&gt;" class="s0" d="m437.5 373.8l3.5-101.4 0.7 7.6-3.4 100.8z"/>
			<path id="&lt;Path&gt;" class="s0" d="m446.3 373.8l3-101.4 0.6 7.6-2.9 100.8z"/>
			<path id="&lt;Path&gt;" class="s0" d="m437.5 373.8l3.5-101.4h8.3l-3 101.4z"/>
			<path id="&lt;Path&gt;" class="s0" d="m567.2 394.2l-2.4-99.4 1.5-22.4 2.6 101.4z"/>
			<path id="&lt;Path&gt;" class="s0" d="m568.9 373.8l-2.6-101.4h8.4l3 101.4z"/>
			<path id="&lt;Path&gt;" class="s0" d="m646.4 380.8l-6.1-100.8 1.2-7.6 6.3 101.4z"/>
			<path id="&lt;Path&gt;" class="s0" d="m639 373.8l-5.8-101.4h8.3l6.3 101.4z"/>
			<path id="&lt;Path&gt;" class="s0" d="m647.8 373.8l-6.3-101.4h8.4l6.6 101.4z"/>
			<path id="&lt;Path&gt;" class="s0" d="m665.3 373.8l-7-101.4h8.3l7.4 101.4z"/>
			<path id="&lt;Path&gt;" class="s0" d="m681 380.8l-7.6-100.8 1.6-7.6 7.8 101.4z"/>
			<path id="&lt;Path&gt;" class="s0" d="m674 373.8l-7.4-101.4h8.4l7.8 101.4z"/>
			<path id="&lt;Path&gt;" class="s0" d="m682.8 373.8l-7.8-101.4h8.3l8.2 101.4z"/>
			<path id="&lt;Path&gt;" class="s0" d="m724.4 380.8l-9.6-100.8 2-7.6 9.8 101.4z"/>
			<path id="&lt;Path&gt;" class="s0" d="m730.8 387.6l-9.8-100.1 4.1-15.1 10.2 101.4z"/>
			<path id="&lt;Path&gt;" class="s0" d="m726.6 373.8l-9.8-101.4h8.3l10.2 101.4z"/>
			<path id="&lt;Path&gt;" class="s0" d="m744.1 373.8l-10.7-101.4h8.4l11 101.4z"/>
			<path id="&lt;Path&gt;" class="s0" d="m286.4 366.8l10.4-102.1 2.1 7.7-10.2 101.4z"/>
			<path id="&lt;Path&gt;" class="s0" d="m268.7 366.8l11.2-102.1h16.9l-10.4 102.1z"/>
			<path id="&lt;Path&gt;" class="s0" d="m295.2 366.8l10.1-102.1h8.4l-9.6 102.1z"/>
			<path id="&lt;Path&gt;" class="s0" d="m312.9 366.8l9.2-102.1 1.9 7.7-9 101.4z"/>
			<path id="&lt;Path&gt;" class="s0" d="m312.9 366.8l9.2-102.1h8.5l-8.8 102.1z"/>
			<path id="&lt;Path&gt;" class="s0" d="m357.2 366.8l7.1-102.1 1.5 7.7-7 101.4z"/>
			<path id="&lt;Path&gt;" class="s0" d="m419.1 366.8l4.3-102.1h8.4l-3.9 102.1z"/>
			<path id="&lt;Path&gt;" class="s0" d="m427.9 366.8l3.9-102.1 1.6 15.3-3.7 100.8z"/>
			<path id="&lt;Path&gt;" class="s0" d="m481 366.8l1.5-102.1 0.6 15.4-1.4 100.7z"/>
			<path id="&lt;Path&gt;" class="s0" d="m472.2 366.8l1.8-102.1h8.5l-1.5 102.1z"/>
			<path id="&lt;Path&gt;" class="s0" d="m489.9 366.8l1-102.1 0.4 15.4-1 100.7z"/>
			<path id="&lt;Path&gt;" class="s0" d="m498.7 366.8l0.7-102.1 0.2 15.4-0.6 100.7z"/>
			<path id="&lt;Path&gt;" class="s0" d="m489.9 366.8l1-102.1h8.5l-0.7 102.1z"/>
			<path id="&lt;Path&gt;" class="s3" d="m507.6 366.8l0.2-102.1h16.9l0.6 102.1z"/>
			<path id="&lt;Path&gt;" class="s0" d="m568.9 373.8l-2.6-101.4 0.6-7.7 2.6 102.1z"/>
			<path id="&lt;Path&gt;" class="s0" d="m577.7 373.8l-3-101.4 0.6-7.7 3.1 102.1z"/>
			<path id="&lt;Path&gt;" class="s0" d="m569.5 366.8l-2.6-102.1h8.4l3.1 102.1z"/>
			<path id="&lt;Path&gt;" class="s0" d="m647.8 373.8l-6.3-101.4 1.3-7.7 6.4 102.1z"/>
			<path id="&lt;Path&gt;" class="s0" d="m656.5 373.8l-6.6-101.4 1.4-7.7 6.7 102.1z"/>
			<path id="&lt;Path&gt;" class="s0" d="m649.2 366.8l-6.4-102.1h8.5l6.7 102.1z"/>
			<path id="&lt;Path&gt;" class="s0" d="m658 366.8l-6.7-102.1h8.4l7.1 102.1z"/>
			<path id="&lt;Path&gt;" class="s0" d="m682.8 373.8l-7.8-101.4 1.6-7.7 7.9 102.1z"/>
			<path id="&lt;Path&gt;" class="s0" d="m684.5 366.8l-7.9-102.1h16.8l8.8 102.1z"/>
			<path id="&lt;Path&gt;" class="s0" d="m705.1 387.6l-8.7-100.1 5.5-22.8 9.2 102.1z"/>
			<path id="&lt;Path&gt;" class="s0" d="m711.1 366.8l-9.2-102.1h16.9l10 102.1z"/>
			<path id="&lt;Path&gt;" class="s0" d="m744.1 373.8l-10.7-101.4 2.2-7.7 10.9 102.1z"/>
			<path id="&lt;Path&gt;" class="s0" d="m737.6 366.8l-10.4-102.1h8.4l10.9 102.1z"/>
			<path id="&lt;Path&gt;" class="s0" d="m746.5 366.8l-10.9-102.1h8.5l11.2 102.1z"/>
			<path id="&lt;Path&gt;" class="s0" d="m761.6 373.8l-11.4-101.4 2.3-7.7 11.7 102.1z"/>
			<path id="&lt;Path&gt;" class="s0" d="m764.2 366.8l-11.7-102.1h8.5l12 102.1z"/>
			<path id="&lt;Path&gt;" class="s0" d="m266.1 359.6l11.5-102.8 2.3 7.9-11.2 102.1z"/>
			<path id="&lt;Path&gt;" class="s0" d="m257.2 359.6l11.9-102.8h8.5l-11.5 102.8z"/>
			<path id="&lt;Path&gt;" class="s0" d="m266.1 359.6l11.5-102.8h8.5l-11 102.8z"/>
			<path id="&lt;Path&gt;" class="s0" d="m275.1 359.6l11-102.8h8.6l-10.7 102.8z"/>
			<path id="&lt;Path&gt;" class="s0" d="m284 359.6l10.7-102.8 2.1 7.9-10.4 102.1z"/>
			<path id="&lt;Path&gt;" class="s0" d="m301.9 359.6l9.8-102.8 2 7.9-9.6 102.1z"/>
			<path id="&lt;Path&gt;" class="s0" d="m292.9 359.6l10.3-102.8h8.5l-9.8 102.8z"/>
			<path id="&lt;Path&gt;" class="s0" d="m310.8 359.6l9.4-102.8h8.6l-9 102.8z"/>
			<path id="&lt;Path&gt;" class="s0" d="m308.7 352.2l9.6-103.5 1.9 8.1-9.4 102.8z"/>
			<path id="&lt;Path&gt;" class="s0" d="m319.8 359.6l9-102.8 1.8 7.9-8.8 102.1z"/>
			<path id="&lt;Path&gt;" class="s0" d="m355.5 359.5l7.3-102.7 1.5 7.9-7.1 102.1z"/>
			<path id="&lt;Path&gt;" class="s0" d="m418.1 359.5l4.4-102.7h8.5l-3.9 102.7z"/>
			<path id="&lt;Path&gt;" class="s0" d="m569.5 366.8l-2.6-102.1 0.5-7.9 2.7 102.7z"/>
			<path id="&lt;Path&gt;" class="s0" d="m570.1 359.5l-2.7-102.7h17.1l3.5 102.7z"/>
			<path id="&lt;Path&gt;" class="s0" d="m600.3 400.7l-3.9-98.7 5.1-45.2 4.4 102.7z"/>
			<path id="&lt;Path&gt;" class="s0" d="m605.9 359.5l-4.4-102.7h8.5l4.8 102.7z"/>
			<path id="&lt;Path&gt;" class="s0" d="m639 373.8l-5.8-101.4 2.4-15.6 6.1 102.7z"/>
			<path id="&lt;Path&gt;" class="s0" d="m641.7 359.5l-6.1-102.7h8.5l6.5 102.7z"/>
			<path id="&lt;Path&gt;" class="s0" d="m674 373.8l-7.4-101.4 3.1-15.6 7.7 102.7z"/>
			<path id="&lt;Path&gt;" class="s0" d="m695.3 359.5l-8.6-102.7h8.6l8.9 102.7z"/>
			<path id="&lt;Path&gt;" class="s0" d="m711.1 366.8l-9.2-102.1 1.9-7.9 9.4 102.7z"/>
			<path id="&lt;Path&gt;" class="s0" d="m728.8 366.8l-10-102.1 2.1-7.9 10.2 102.7z"/>
			<path id="&lt;Path&gt;" class="s0" d="m713.2 359.5l-9.4-102.7h17.1l10.2 102.7z"/>
			<path id="&lt;Path&gt;" class="s0" d="m746.5 366.8l-10.9-102.1 2.3-7.9 11 102.7z"/>
			<path id="&lt;Path&gt;" class="s0" d="m755.3 366.8l-11.2-102.1 2.3-7.9 11.5 102.7z"/>
			<path id="&lt;Path&gt;" class="s0" d="m748.9 359.5l-11-102.7h8.5l11.5 102.7z"/>
			<path id="&lt;Path&gt;" class="s0" d="m766.8 359.5l-11.9-102.7h8.6l12.3 102.7z"/>
			<path id="&lt;Path&gt;" class="s0" d="m254.5 352.2l12.1-103.5 2.5 8.1-11.9 102.8z"/>
			<path id="&lt;Path&gt;" class="s0" d="m263.5 352.2l11.7-103.5 2.4 8.1-11.5 102.8z"/>
			<path id="&lt;Path&gt;" class="s0" d="m254.5 352.2l12.1-103.5h8.6l-11.7 103.5z"/>
			<path id="&lt;Path&gt;" class="s0" d="m308.7 352.2l9.6-103.5h8.6l-9.2 103.5z"/>
			<path id="&lt;Path&gt;" class="s0" d="m317.7 352.2l9.2-103.5 1.9 8.1-9 102.8z"/>
			<path id="&lt;Path&gt;" class="s0" d="m353.9 352.2l7.4-103.5 1.5 8.1-7.3 102.7z"/>
			<path id="&lt;Path&gt;" class="s0" d="m344.8 352.2l7.9-103.5h8.6l-7.4 103.5z"/>
			<path id="&lt;Path&gt;" class="s0" d="m362.9 352.2l7-103.5h8.6l-6.6 103.5z"/>
			<path id="&lt;Path&gt;" class="s0" d="m371.9 352.2l6.6-103.5 1.4 8.1-6.5 102.7z"/>
			<path id="&lt;Path&gt;" class="s0" d="m371.9 352.2l6.6-103.5h8.6l-6.1 103.5z"/>
			<path id="&lt;Path&gt;" class="s0" d="m381 352.2l6.1-103.5 1.3 8.1-6.1 102.7z"/>
			<path id="&lt;Path&gt;" class="s0" d="m471.3 352.2l2-103.5h8.6l-1.5 103.5z"/>
			<path id="&lt;Path&gt;" class="s0" d="m498.4 352.2l0.7-103.5 0.3 16-0.7 102.1z"/>
			<path id="&lt;Path&gt;" class="s0" d="m489.4 352.2l1.1-103.5h8.6l-0.7 103.5z"/>
			<path id="&lt;Path&gt;" class="s0" d="m408.1 352.2l4.9-103.5 1 8.1-4.8 102.7z"/>
			<path id="&lt;Path&gt;" class="s0" d="m399 352.2l5.4-103.5h8.6l-4.9 103.5z"/>
			<path id="&lt;Path&gt;" class="s0" d="m417.1 352.2l4.5-103.5h8.6l-4.1 103.5z"/>
			<path id="&lt;Path&gt;" class="s0" d="m426.1 352.2l4.1-103.5 0.8 8.1-3.9 102.7z"/>
			<path id="&lt;Path&gt;" class="s0" d="m435.2 352.2l3.6-103.5h8.6l-3.2 103.5z"/>
			<path id="&lt;Path&gt;" class="s0" d="m444.2 352.2l3.2-103.5 1.9 23.7-3 101.4z"/>
			<path id="&lt;Path&gt;" class="s0" d="m542.7 373.9l-1.4-101.5 0.8-23.7 1.5 103.5z"/>
			<path id="&lt;Path&gt;" class="s0" d="m551.4 373.9l-1.8-101.5 1.2-23.7 1.9 103.5z"/>
			<path id="&lt;Path&gt;" class="s0" d="m543.6 352.2l-1.5-103.5h8.7l1.9 103.5z"/>
			<path id="&lt;Path&gt;" class="s0" d="m462.3 352.2l2.3-103.5 0.5 8.1-2.3 102.7z"/>
			<path id="&lt;Path&gt;" class="s0" d="m444.2 352.2l3.2-103.5h17.2l-2.3 103.5z"/>
			<path id="&lt;Path&gt;" class="s0" d="m570.1 359.5l-2.7-102.7 0.6-8.1 2.7 103.5z"/>
			<path id="&lt;Path&gt;" class="s0" d="m588 359.5l-3.5-102.7 0.7-8.1 3.6 103.5z"/>
			<path id="&lt;Path&gt;" class="s0" d="m570.7 352.2l-2.7-103.5h17.2l3.6 103.5z"/>
			<path id="&lt;Path&gt;" class="s0" d="m596.9 359.5l-3.9-102.7 0.8-8.1 4 103.5z"/>
			<path id="&lt;Path&gt;" class="s0" d="m614.8 359.5l-4.8-102.7 1-8.1 4.9 103.5z"/>
			<path id="&lt;Path&gt;" class="s0" d="m597.8 352.2l-4-103.5h17.2l4.9 103.5z"/>
			<path id="&lt;Path&gt;" class="s0" d="m615.9 352.2l-4.9-103.5h17.2l5.8 103.5z"/>
			<path id="&lt;Path&gt;" class="s0" d="m650.6 359.5l-6.5-102.7 1.4-8.1 6.6 103.5z"/>
			<path id="&lt;Path&gt;" class="s0" d="m658 366.8l-6.7-102.1 2.8-16 7 103.5z"/>
			<path id="&lt;Path&gt;" class="s0" d="m652.1 352.2l-6.6-103.5h8.6l7 103.5z"/>
			<path id="&lt;Path&gt;" class="s0" d="m661.1 352.2l-7-103.5h17.2l7.9 103.5z"/>
			<path id="&lt;Path&gt;" class="s0" d="m724.4 352.2l-10-103.5h8.6l10.4 103.5z"/>
			<path id="&lt;Path&gt;" class="s0" d="m766.8 359.5l-11.9-102.7 2.5-8.1 12.1 103.5z"/>
			<path id="&lt;Path&gt;" class="s0" d="m760.5 352.2l-11.7-103.5h8.6l12.1 103.5z"/>
			<path id="&lt;Path&gt;" class="s0" d="m270 344.6l11.5-104.1 4.6 16.3-11 102.8z"/>
			<path id="&lt;Path&gt;" class="s0" d="m315.6 344.6l9.4-104.1 1.9 8.2-9.2 103.5z"/>
			<path id="&lt;Path&gt;" class="s0" d="m343 344.6l8.1-104.1 1.6 8.2-7.9 103.5z"/>
			<path id="&lt;Path&gt;" class="s0" d="m361.3 344.6l7.2-104.1 1.4 8.2-7 103.5z"/>
			<path id="&lt;Path&gt;" class="s0" d="m370.4 344.6l6.8-104.1 1.3 8.2-6.6 103.5z"/>
			<path id="&lt;Path&gt;" class="s0" d="m388.7 344.6l5.9-104.1 2.3 16.3-5.6 102.7z"/>
			<path id="&lt;Path&gt;" class="s0" d="m416.1 344.6l4.6-104.1 0.9 8.2-4.5 103.5z"/>
			<path id="&lt;Path&gt;" class="s0" d="m434.3 344.6l3.7-104.1 0.8 8.2-3.6 103.5z"/>
			<path id="&lt;Path&gt;" class="s0" d="m443.5 344.6l3.2-104.1 0.7 8.2-3.2 103.5z"/>
			<path id="&lt;Path&gt;" class="s0" d="m461.7 344.6l2.4-104.1 0.5 8.2-2.3 103.5z"/>
			<path id="&lt;Path&gt;" class="s0" d="m480 344.6l1.6-104.1 0.3 8.2-1.5 103.5z"/>
			<path id="&lt;Path&gt;" class="s0" d="m489.2 344.6l1.1-104.1 0.2 8.2-1.1 103.5z"/>
			<path id="&lt;Path&gt;" class="s0" d="m498.3 344.6l0.7-104.1 0.1 8.2-0.7 103.5z"/>
			<path id="&lt;Path&gt;" class="s0" d="m533.7 380.8l-1-100.7 1.1-39.6 1 104.1z"/>
			<path id="&lt;Path&gt;" class="s0" d="m570.7 352.2l-2.7-103.5 0.5-8.2 2.9 104.1z"/>
			<path id="&lt;Path&gt;" class="s0" d="m615.9 352.2l-4.9-103.5 1-8.2 5 104.1z"/>
			<path id="&lt;Path&gt;" class="s0" d="m641.7 359.5l-6.1-102.7 2.5-16.3 6.3 104.1z"/>
			<path id="&lt;Path&gt;" class="s0" d="m661.1 352.2l-7-103.5 1.4-8.2 7.2 104.1z"/>
			<path id="&lt;Path&gt;" class="s0" d="m679.2 352.2l-7.9-103.5 1.6-8.2 8.1 104.1z"/>
			<path id="&lt;Path&gt;" class="s0" d="m695.3 359.5l-8.6-102.7 3.6-16.3 8.9 104.1z"/>
			<path id="&lt;Path&gt;" class="s0" d="m713.2 359.5l-9.4-102.7 3.9-16.3 9.8 104.1z"/>
			<path id="&lt;Path&gt;" class="s0" d="m724.4 352.2l-10-103.5 2-8.2 10.3 104.1z"/>
			<path id="&lt;Path&gt;" class="s0" d="m733.4 352.2l-10.4-103.5 2.1-8.2 10.7 104.1z"/>
			<path id="&lt;Path&gt;" class="s0" d="m748.9 359.5l-11-102.7 4.6-16.3 11.5 104.1z"/>
			<path id="&lt;Path&gt;" class="s0" d="m760.5 352.2l-11.7-103.5 2.4-8.2 12 104.1z"/>
			<g id="&lt;Group&gt;">
				<path id="&lt;Path&gt;" class="s4" d="m499 240.5l-0.7 104.1h-27.4l2-104.1z"/>
				<path id="&lt;Path&gt;" class="s5" d="m559.9 240.5l2.3 104.1h-27.4l-1-104.1z"/>
				<path id="&lt;Path&gt;" class="s6" d="m629.4 240.5l5.9 104.1h-63.9l-2.8-104.1z"/>
				<path id="&lt;Path&gt;" class="s7" d="m255.4 240.5h26.1l-11.5 104.1h-27.4z"/>
				<path id="&lt;Path&gt;" class="s8" d="m325 240.5l-9.4 104.1h-27.4l10.7-104.1z"/>
				<path id="&lt;Path&gt;" class="s9" d="m394.6 240.5l-5.9 104.1h-63.9l8.9-104.1z"/>
				<path id="&lt;Path&gt;" class="s10" d="m464.1 240.5l-2.4 104.1h-63.9l5.5-104.1z"/>
				<path id="&lt;Path&gt;" class="s11" d="m699 240.5l9.4 104.1h-64l-6.3-104.1h17.4 17.4z"/>
				<path id="&lt;Path&gt;" class="s12" d="m733.8 240.5l11.1 104.1h-27.4l-9.8-104.1z"/>
				<path id="&lt;Path&gt;" class="s13" d="m781.4 344.6h-27.4l-11.5-104.1h26.1z"/>
			</g>
			<path id="&lt;Compound Path&gt;" fill-rule="evenodd" class="s14" d="m708.3 344.6l-4.1 14.9-2 7.3-1.9 7h-8.8l-1.8 7h8.6l-5.5 19.9-3.5 12.7h-24.7l1.5-6.3 4.6-19.5h-8.5l-1.5 6.6-1.5 6.5-2.9 12.7h-24.7l3.6-19.2 3.8-20.4 2.7-14.3 2.7-14.9zm-30.9 14.9h-8.9l-1.7 7.3-1.6 7h8.8zm-42.1-14.9l-1.3 7.6-3.8 21.6-2.4 13.7-2.3 13.2-2.2 12.7h-57.7l1.6-19.2 1.7-20.4 0.6-7 0.6-7.3 0.6-7.3 0.7-7.6zm-29.5 14.9h-8.9l-2.6 21.3-0.8 6.7-1.6 13.2h8.4zm175.5-14.9l-5.6 14.9-2.8 7.3-2.7 7h-17.5l-2.4 6.9h17.3l-7.6 20-4.8 12.7h-24.7l2.1-6.3 4.4-12.9h-8.5l-2.1 6.5-4.2 12.7h-24.7l3.7-12.7 1.8-6.5 2-6.7 6-20.7 2.1-7.3 4.3-14.9h27.4l-7.3 22.2h8.9l2.4-7.3 5.1-14.9zm-452 49.6l5.3 19.2h-24.7l-4-12.7h-8.4l-4.4-13.2h-8.5l2.2 6.7 6.6 19.2h-24.7l-7.3-19.2-5.2-13.4-2.6-7-11.1-29.2h27.4l5.1 14.9h8.9l2.4 7.2 2.3 7.1h8.8l-2.3-7.1-2.2-7.2-4.8-14.9h27.4l2.1 7.5 2.1 7.4 2 7.2 1.9 7.1zm133.4-34.7h-17.8l1.4 14.3 0.6 7 1.3 13.4 1.9 19.2h-24.7l-3.5-25.9-1-6.7-1.9-14-0.9-7.3h-17.9l-1.2-7.3-1.2-7.6h63.9l0.5 7.6zm99.5-14.9l-3.5 49.6-0.5 6.5h-8.4l-0.7 12.6h-24.8l0.4-19.1h-17v6.5l0.1 12.6h-24.7l-0.3-6.2-0.3-6.4h-8.4l-0.4-6.5-0.4-6.7-0.4-6.8-0.8-14-0.8-14.6-0.5-7.5h27.4l0.2 7.5 0.3 14.6 0.2 14h8.7l-0.1-14h17.7l-0.3 14h8.7l1.2-36.1zm-163.8 56l2.2 12.7h-57.7l-3.4-12.7-3.5-13.1-1.7-6.8-1.9-6.9-1.8-7.1-3.9-14.6-2-7.5h63.9l2.6 14.9h-35.7l1.6 7.2 1.6 7.1h26.2l1.3 6.9 1.3 6.8h-25.7l3 13.1z"/>
			<path id="&lt;Compound Path&gt;" fill-rule="evenodd" class="s15" d="m692.8 400.7l-3.5 12.7h-24.7l1.5-6.3h8.3l1.6-6.4zm33.7 0l-4.2 12.7h-24.7l3.6-12.7h8.5l-2 6.4h8.3l2.1-6.4zm-439.6-6.5l6.6 19.2h-24.8l-7.3-19.2h8.5l2.4 6.5h8.4l-2.3-6.5zm331.3 0l-1.1 6.5h8.4l-2.2 12.7h-57.7l1.6-19.2h8.5l-1.2 12.9h8.3l0.7-6.4h16.8l-0.9 6.4h8.3l2-12.9zm25.5 0l-2.6 12.9h8.3l1.4-6.4h8.4l-2.9 12.7h-24.7l3.6-19.2zm-341.9-6.6l2.1 6.6h8.5l2 6.5h8.4l-1.9-6.5h8.5l5.3 19.2h-24.7l-4-12.7h-8.4l-4.4-13.1zm180.2 0l0.3 6.6h-8.5l-0.4-6.6zm17.2 0l0.2 13.2h8.4l0.1 12.6h-24.7l-0.3-6.3h8.3l-0.6-19.5zm-137.3-0.1l3 13.2h33.6l2.2 12.7h-57.7l-3.4-12.7h8.5l-3.3-13.2zm68.6 0l2.4 19.6h8.3l-1.4-12.9h8.5l1.8 19.2h-24.7l-3.5-25.9zm231.7 0l-1.5 6.7h-8.5l1.4-6.7zm25.7 0l-1.7 6.7h-8.5l1.6-6.7zm25.8 0l-2 6.7h-8.5l1.9-6.7zm42.9 0l-4.8 13.2h8.4l-4.8 12.7h-24.8l2.2-6.3h8.3l6.9-19.6zm-474.2-6.7l2.3 6.8h-8.5l-2.4-6.8zm60.6 0l1.7 6.7h-8.6l-1.8-6.7zm173.4 0l-0.1 6.8h-8.5l-0.1-6.8zm17.3 0l-0.2 6.8h-8.6l0.2-6.8zm17.3 0l-0.8 13.4h8.5l-0.4 6.6h-8.4l-0.8 12.6h-24.7l0.4-19.2h8.4l-0.4 12.9h8.4l1.1-26.3zm43.4 0l-0.9 6.7h-17.1l0.7-6.7zm-323.2-7l2.5 7h-17.4l-2.6-7zm35 0l4.2 13.8h-8.6l-4.3-13.8zm36.8-29.2l1.8 7.6h9l1.7 7.3h-9l1.8 7.3h8.8l1.6 7h-26.3l-1.8-7h8.8l-3.7-14.6h-9l-2-7.6zm42 29.2l1.3 7h-8.7l1.4 6.7h-8.6l-2.9-13.7zm61.3 0l0.6 7h-8.6l-0.8-7zm183.9 0l-2.4 13.7h-17.1l1-6.7h8.6l1.2-7zm105.1 0l-4.5 13.7h-17.2l2.1-6.7h8.6l2.2-7zm-413.5-7l1.9 7h-8.7l-2.1-7zm106.2 0l1.7 14h-8.7l-1.9-14zm53.1 0l0.7 14h-8.7l-0.8-14zm17.7 0l0.3 14h-8.7l-0.5-14zm79.7 0l-0.7 7h-8.8l0.6-7zm123.9 0l-2 7h-17.5l1.8-7zm-418.2-7.3l2.3 7.3h-17.6l-2.6-7.3zm17.9 0l2.2 7.3h-8.9l-2.3-7.3zm15.9-7.3l2 7.3h-8.9l-2.2-7.3zm306 7.3l-1.1 7.3h-8.9l1.1-7.3zm107.3 0l-2.3 7.3h-17.7l2.1-7.3zm-467.5-7.3l2.6 7.3h-8.9l-2.7-7.3zm117.4 0l1.4 7.3h-9l-1.4-7.3zm171.7 0l-1.3 21.6h-8.7l0.9-21.6zm-90.4 0l0.6 7.3h-17.9l-0.7-7.3zm126.5 0l-0.8 7.3h-17.9l0.6-7.3zm27.1 0l-1.1 7.3h-17.8l0.9-7.3zm45.2 0l-3.1 14.6h-8.9l-1.4 7h8.8l1.5-7h8.8l-1.6 7h17.5l-1.7 7h-8.7l-1.6 6.7h-8.6l1.6-6.7h-17.4l1.4-7h-8.7l2.6-14.3h9l1.4-7.3zm-290.7-7.6l1.6 7.6h-9.1l-1.6-7.6zm45.7 0l1 7.6h9l0.9 7.3h-17.8l-1.1-7.3h-9.1l-1.2-7.6zm27.4 0l0.7 7.6h-9l-0.8-7.6zm36.5 0l0.4 7.6h-9.1l-0.4-7.6zm18.3 0l0.1 7.6h-9l-0.3-7.6zm137 0l-1.3 7.6h-18.1l1.1-7.6zm45.7 0l-1.8 7.6h-18l1.6-7.6zm27.4 0l-4.2 14.9h-8.9l3.9-14.9zm27.5 0l-2.4 7.6h-9l2.2-7.6zm27.4 0l-2.6 7.6h9l-2.7 7.3h8.9l-2.7 7.3h-8.9l-2.6 7h-17.5l2.4-7h8.9l2.5-7.3h-8.9l5.1-14.9z"/>
			<path id="&lt;Path&gt;" class="s16" d="m507.6 368.3v-1.5h17.7l-0.1 1.5z"/>
			<path id="&lt;Path&gt;" class="s16" d="m689.3 382.3l0.4-1.5h8.6l-0.4 1.5z"/>
			<path id="&lt;Path&gt;" class="s16" d="m750.4 380.8h17.3l-0.6 1.5h-17.3z"/>
			<path id="&lt;Path&gt;" class="s16" d="m744.9 344.6l-0.5 1.5h-19.9-7-0.4l0.4-1.5z"/>
			<path id="&lt;Path&gt;" class="s16" d="m746.5 366.8l-0.5 1.5h-8.9l0.5-1.5h5.5 2.9z"/>
			<path id="&lt;Path&gt;" class="s16" d="m781.4 344.6l-0.5 1.5h-18.9-8-0.5l0.5-1.5z"/>
			<path id="&lt;Path&gt;" class="s16" d="m708.3 344.6l-0.4 1.5h-56.6-6.9-0.2l0.2-1.5z"/>
			<path id="&lt;Path&gt;" class="s16" d="m674 373.8l-0.4 1.5h-8.7l0.4-1.5h3.9z"/>
			<path id="&lt;Path&gt;" class="s16" d="m635.3 344.6l-0.3 1.5h-58.1-5.5-0.2l0.2-1.5z"/>
			<path id="&lt;Path&gt;" class="s16" d="m600.3 400.7l-0.2 1.5h-8.4l0.2-1.5h8.2z"/>
			<path id="&lt;Path&gt;" class="s16" d="m507.7 382.3h-8.7v-1.5h8.7z"/>
			<path id="&lt;Path&gt;" class="s16" d="m489.2 346.1h-18.2l-0.1-1.5h27.4v1.5z"/>
			<path id="&lt;Path&gt;" class="s16" d="m553 346.1h-18.2v-1.5h27.4l-0.1 1.5z"/>
			<path id="&lt;Path&gt;" class="s16" d="m533.7 380.8l-0.1 1.5h-8.6v-1.5h5.8 2.8z"/>
			<path id="&lt;Path&gt;" class="s16" d="m455.9 346.1h-57.8l-0.3-1.5h63.9l0.1 1.5h-0.1z"/>
			<path id="&lt;Path&gt;" class="s16" d="m381.5 346.1h-56.3l-0.4-1.5h63.9l0.2 1.5h-0.2z"/>
			<path id="&lt;Path&gt;" class="s16" d="m379.1 375.3h-20l-0.3-1.5h26.2l0.3 1.5h-0.3z"/>
			<path id="&lt;Path&gt;" class="s16" d="m391.7 402.2h-26.5l-0.4-1.5h0.4 6.1 27.1l0.3 1.5h-0.3z"/>
			<path id="&lt;Path&gt;" class="s16" d="m303.9 346.1h-15.2l-0.5-1.5h27.4l0.5 1.5h-0.5z"/>
			<path id="&lt;Path&gt;" class="s16" d="m280.7 361.1h-5.1l-0.5-1.5h5.1 3.8l0.5 1.5h-0.5z"/>
			<path id="&lt;Path&gt;" class="s16" d="m265.2 346.1h-22.1l-0.5-1.5h27.4l0.5 1.5h-0.5z"/>
			<path id="&lt;Path&gt;" class="s16" d="m297.9 375.4h-8.7l-0.5-1.5h8.8z"/>
			<path id="&lt;Compound Path&gt;" fill-rule="evenodd" class="s17" d="m498.3 344.6h-27.4l2-104.1h26.1zm-23.5-102.2l-1.9 100.2h23.4l0.6-100.2zm87.4 102.2h-27.4l-1.1-104.2h26.1zm-26.4-102.2l1 100.2h23.4l-2.3-100.2zm99.5 102.2h-63.9l-2.8-104.2h60.8zm-64.6-102.1l2.7 100.1h59.8l-5.6-100.1zm-300.7 102.1h-27.4l12.9-104.1h26.1zm-12.8-102.2l-12.4 100.2h23.4l11.1-100.2zm58.4 102.2h-27.4l10.7-104.2h26.1zm-14.9-102.2l-10.3 100.2h23.4l9-100.2zm87.9 102.2h-63.9l9-104.2h60.8zm-53.1-102.1l-8.6 100.1h59.8l5.7-100.1zm126.2 102.1h-63.9l5.4-104.1h60.9zm-56.6-102.2l-5.2 100.2h59.9l2.3-100.2zm303.1 102.2h-63.9l-6.3-104.2h17.4 17.4 26.1zm-35.4-102.2h-17.4-15.3l6.1 100.2h59.8l-9-100.2zm72 102.2h-27.4l-9.8-104.2h26.1zm-35-102.2l9.5 100.2h23.3l-10.7-100.2zm71.5 102.2h-27.4l-11.5-104.2h26.1zm-36.7-102.2l11.1 100.2h23.3l-12.3-100.2z"/>
			<path id="&lt;Compound Path&gt;" fill-rule="evenodd" class="s18" d="m525.3 366.8h-17.7l0.2-102.1h16.9zm-15.5-100.1l-0.2 98.1h13.7l-0.6-98.1z"/>
		</g>
	</g>
	<g id="Шар 10">
		<path id="&lt;Path&gt;" class="s19" d="m811.7 287.9h-17.8l0.7 3.9-17.6 32.3h-17.7-22l-0.3-2-0.9 2h-40.2l-2.2-19.5-0.4 1.2h-23.3l-5.5 18.3h-41-82.8-82-81.7l-0.2-0.7v0.7h-56.1-25.5l-0.9-2.1-0.3 2.1h-39.7l-1.3-2.3-0.4 2.3h-39.3l-20.3-32.1 8.2-42.4 10.8-55.8h81.2l0.7 1.8 0.3-1.8h82v0.2l0.1-0.2h83 81.6 83.1 41.3l1.6 17.4h10.4l1.8 17.7h3.7l5.5-17.7h2.9l5.4-17.4h40.6l0.2 1.8 0.7-1.8h81.2l11.7 60.4z"/>
		<g id="&lt;Group&gt;">
			<path id="&lt;Path&gt;" class="s20" d="m598.3 310.1l9.7 30.7-13.1 25.2-14.2-25.8-24.7-28.1z"/>
			<path id="&lt;Path&gt;" class="s21" d="m580.7 340.2l27.3 0.6-13.1 25.2z"/>
			<path id="&lt;Path&gt;" class="s22" d="m587.1 311.8l9.1 19.1 6.3 3-5.4-0.9 2.7 5.6-5.5 24.8 1-13.1-5 2.2 5.1-4.1 0.8-8.2-7.9-12.7-8 4 6.8-6-8.9-14.4z"/>
			<path id="&lt;Path&gt;" class="s23" d="m605.1 342l-24.4-1.8 24.6-0.9-10-29 3-0.2 9.7 30.7-13.1 25.2z"/>
		</g>
		<g id="&lt;Group&gt;">
			<path id="&lt;Path&gt;" class="s24" d="m634.9 314.3l6.6 28.5-23.3 29.3-4-28.3-38.7-33.5z"/>
			<path id="&lt;Path&gt;" class="s25" d="m618.2 372.1l-4-28.3 27.3-1z"/>
			<path id="&lt;Path&gt;" class="s22" d="m619.8 316.1l8.6 19.4 8.7 3.6-7.7-1.6 2.5 5.7-5.4 11.4 0.3 6.1-1.4-3.8-7.2 15.2 6.2-19.5-6.5 1.4 7.4-4.1 2.1-6.6-6.7-11.4-8.1 3.8 6.9-5.9-8.6-14.5z"/>
			<path id="&lt;Path&gt;" class="s23" d="m637.8 343.8h-23.6l23.9-2.1-6.1-27.6 2.9 0.2 6.6 28.5-23.3 29.3z"/>
		</g>
		<g id="&lt;Group&gt;">
			<path id="&lt;Path&gt;" class="s26" d="m444 310.5l12.2 29.7-1.2 28.6-26.1-26.9-26.9-25.9z"/>
			<path id="&lt;Path&gt;" class="s27" d="m428.9 341.9l27.3-1.7-1.2 28.6z"/>
			<path id="&lt;Path&gt;" class="s22" d="m432.9 313.1l10.7 18.3 6.6 2.5-5.5-0.6 3.1 5.4 6.4 27.5-6.2-15.5-6.6 1.7 5.6-4.2-3.7-8.9-7.8-10.7-7.7 4.7 6.3-6.6-10.1-13.5z"/>
			<path id="&lt;Path&gt;" class="s23" d="m453.4 341.6l-24.5 0.3 24.5-2.9-12.4-28 3-0.5 12.2 29.7-1.2 28.6z"/>
		</g>
		<g id="&lt;Group&gt;">
			<path id="&lt;Path&gt;" class="s28" d="m609.1 315.8l-42.7 28.2-7.6 27.6-19.4-32 10.2-27.5z"/>
			<path id="&lt;Path&gt;" class="s29" d="m539.4 339.6l27 4.4-7.6 27.6z"/>
			<path id="&lt;Path&gt;" class="s22" d="m573.3 316.2l-10.3 13.3 6.1 6.8-7.6-4.9-8.1 10.4 1.3 6.8 6.7 5.1-6.2-2.2 3.6 20.1-5.2-15.9-1.9 3.5 1.1-6.1-3.9-11.9 3.3-5.3-7.9 0.5 9-2.4 11.1-18.1z"/>
			<path id="&lt;Path&gt;" class="s23" d="m563.3 344.8l-23.9-5.2 24.5 2.6 42.2-26.6 3 0.2-42.7 28.2-7.6 27.6z"/>
		</g>
		<g id="&lt;Group&gt;">
			<path id="&lt;Path&gt;" class="s30" d="m448.7 311.3l-38.4 33.9-3.7 28.3-23.6-29 6.3-28.6z"/>
			<path id="&lt;Path&gt;" class="s31" d="m383 344.5l27.3 0.7-3.7 28.3z"/>
			<path id="&lt;Path&gt;" class="s22" d="m413.4 316.6l-8.5 14.7 7 5.8-8.2-3.8-6.5 11.5 2.1 6.5 7.4 4.1-6.5-1.3 6.4 19.4-7.3-15.1-1.5 3.8 0.3-6.2-5.5-11.3 2.5-5.7-7.8 1.7 8.7-3.7 8.5-19.5z"/>
			<path id="&lt;Path&gt;" class="s23" d="m407.4 346.3l-24.4-1.8 24.6-0.8 38.1-32.1 3-0.3-38.4 33.9-3.7 28.3z"/>
		</g>
		<path id="&lt;Path&gt;" class="s32" d="m811.7 287.9h-17.8l0.7 3.9-17.6 32.3h-17.7-22l-0.3-2-0.9 2h-40.2l-2.2-19.5-0.4 1.2h-23.3l-5.5 18.3h-41-82.8-82-81.7l-0.2-0.7v0.7h-56.1-25.5l-0.9-2.1-0.3 2.1h-39.7l-1.3-2.3-0.4 2.3h-39.3l-20.3-32.1 8.2-42.4 10.8-55.8h81.2l0.7 1.8 0.3-1.8h82v0.2l0.1-0.2h83 81.6 83.1 41.3l1.6 17.4h10.4l1.8 17.7h3.7l5.5-17.7h2.9l5.4-17.4h40.6l0.2 1.8 0.7-1.8h81.2l11.7 60.4z"/>
		<g id="&lt;Group&gt;">
			<path id="&lt;Path&gt;" class="s19" d="m786.4 217.2l-14.1 30h-9.8l13.5-30z"/>
		</g>
		<g id="&lt;Group&gt;">
			<path id="&lt;Path&gt;" class="s19" d="m760.4 232.5l-12.9 29.5-4.5-31.6 12.3-30.6z"/>
		</g>
		<g id="&lt;Group&gt;">
			<path id="&lt;Path&gt;" class="s19" d="m746 225.7l-12 29.7-3.4-25 11.6-30.6z"/>
		</g>
		<g id="&lt;Group&gt;">
			<path id="&lt;Path&gt;" class="s19" d="m756.5 225.7l-12.6 29.7h-9.9l12-29.7z"/>
		</g>
		<g id="&lt;Group&gt;">
			<path id="&lt;Path&gt;" class="s19" d="m768 232.5l-13.2 29.5h-7.3l12.9-29.5z"/>
		</g>
		<g id="&lt;Group&gt;">
			<path id="&lt;Path&gt;" class="s19" d="m820.7 232.5l-16.1 29.5h-11.6l15.4-29.5z"/>
		</g>
		<g id="&lt;Group&gt;">
			<path id="&lt;Path&gt;" class="s19" d="m768.4 234.9l-13.3 29.4-0.3-2.3 13.2-29.5z"/>
		</g>
		<g id="&lt;Group&gt;">
			<path id="&lt;Path&gt;" class="s19" d="m789.5 234.9l-14.4 29.4-2.8-17.1 14.1-30z"/>
		</g>
		<g id="&lt;Group&gt;">
			<path id="&lt;Path&gt;" class="s19" d="m824.7 253.1l-16.5 28.8h-40.3l14.1-28.8z"/>
		</g>
		<g id="&lt;Group&gt;">
			<path id="&lt;Path&gt;" class="s19" d="m783.7 263.4l-14.3 28.3h-17.6l13.4-28.3z"/>
		</g>
		<g id="&lt;Group&gt;">
			<path id="&lt;Path&gt;" class="s19" d="m755.6 290.8l-13.1 27.3-8.2-60.4 12.1-29.6z"/>
		</g>
		<g id="&lt;Group&gt;">
			<path id="&lt;Path&gt;" class="s19" d="m772.4 290.8l-14 27.3-3.5-23.9 13.6-28.3z"/>
		</g>
		<g id="&lt;Group&gt;">
			<path id="&lt;Path&gt;" class="s19" d="m630 214.8l-5.9 30.1-1-14.5 5.8-30.6z"/>
		</g>
		<g id="&lt;Group&gt;">
			<path id="&lt;Path&gt;" class="s19" d="m661.2 214.8l-7.5 30.1h-29.6l5.9-30.1z"/>
		</g>
		<g id="&lt;Group&gt;">
			<path id="&lt;Path&gt;" class="s19" d="m702.8 214.8l-9.7 30.1-1.6-14.5 9.5-30.6z"/>
		</g>
		<g id="&lt;Group&gt;">
			<path id="&lt;Path&gt;" class="s19" d="m716.8 214.8l-10.4 30.1h-13.3l9.7-30.1z"/>
		</g>
		<g id="&lt;Group&gt;">
			<path id="&lt;Path&gt;" class="s19" d="m694.5 232.5l-9.4 29.5-1.6-14.8 9.2-30z"/>
		</g>
		<g id="&lt;Group&gt;">
			<path id="&lt;Path&gt;" class="s19" d="m719.1 232.5l-10.7 29.5-2-17.1 10.4-30.1z"/>
		</g>
		<g id="&lt;Group&gt;">
			<path id="&lt;Path&gt;" class="s19" d="m716.3 232.5l-10.5 29.5h-20.7l9.4-29.5z"/>
		</g>
		<g id="&lt;Group&gt;">
			<path id="&lt;Path&gt;" class="s19" d="m736.5 232.5l-11.6 29.5h-16.5l10.7-29.5z"/>
		</g>
		<g id="&lt;Group&gt;">
			<path id="&lt;Path&gt;" class="s19" d="m675.5 253.1l-8.5 28.8h-10.1l7.9-28.8z"/>
		</g>
		<g id="&lt;Group&gt;">
			<path id="&lt;Path&gt;" class="s19" d="m707.4 253.1l-10.2 28.8h-10l9.6-28.8z"/>
		</g>
		<g id="&lt;Group&gt;">
			<path id="&lt;Path&gt;" class="s19" d="m633.4 260.2l-6.3 28.5-2.8-41.5 5.9-30z"/>
		</g>
		<g id="&lt;Group&gt;">
			<path id="&lt;Path&gt;" class="s19" d="m650.5 260.2l-7.2 28.5h-16.2l6.3-28.5z"/>
		</g>
		<g id="&lt;Group&gt;">
			<path id="&lt;Path&gt;" class="s19" d="m677.3 271.7l-8.7 28.1-1.6-17.9 8.5-28.8z"/>
		</g>
		<g id="&lt;Group&gt;">
			<path id="&lt;Path&gt;" class="s19" d="m698.9 271.7l-9.9 28.1h-20.4l8.7-28.1z"/>
		</g>
		<g id="&lt;Group&gt;">
			<path id="&lt;Path&gt;" class="s19" d="m651.5 271.8l-7.3 28-0.9-11.1 7.2-28.5z"/>
		</g>
		<g id="&lt;Group&gt;">
			<path id="&lt;Path&gt;" class="s19" d="m666.6 271.8l-8.2 28h-14.2l7.3-28z"/>
		</g>
		<g id="&lt;Group&gt;">
			<path id="&lt;Path&gt;" class="s19" d="m652.1 279l-7.4 27.8-0.3-4.5 7.3-28z"/>
		</g>
		<g id="&lt;Group&gt;">
			<path id="&lt;Path&gt;" class="s19" d="m667.2 279l-8.2 27.8h-14.3l7.4-27.8z"/>
		</g>
		<g id="&lt;Group&gt;">
			<path id="&lt;Path&gt;" class="s19" d="m635.6 290.8l-6.5 27.3-1.9-27 6.3-28.4z"/>
		</g>
		<g id="&lt;Group&gt;">
			<path id="&lt;Path&gt;" class="s19" d="m712 290.8l-10.7 27.3-4.1-36.2 10.2-28.8z"/>
		</g>
		<g id="&lt;Group&gt;">
			<path id="&lt;Path&gt;" class="s19" d="m546.8 214.8l-1.6 30.1-0.2-14.5 1.5-30.6z"/>
		</g>
		<g id="&lt;Group&gt;">
			<path id="&lt;Path&gt;" class="s19" d="m560.7 214.8l-2.4 30.1h-13.1l1.6-30.1z"/>
		</g>
		<g id="&lt;Group&gt;">
			<path id="&lt;Path&gt;" class="s19" d="m563.5 217.1l-2.4 30.1-0.5-16.8 2.4-30.6z"/>
		</g>
		<g id="&lt;Group&gt;">
			<path id="&lt;Path&gt;" class="s19" d="m619.8 217.2l-5.4 30h-39.5l3.2-30z"/>
		</g>
		<g id="&lt;Group&gt;">
			<path id="&lt;Path&gt;" class="s19" d="m621.5 242.8l-5.6 29.1h-18l4.6-29.1z"/>
		</g>
		<g id="&lt;Group&gt;">
			<path id="&lt;Path&gt;" class="s19" d="m547.6 253.1l-1.7 28.8-0.6-34.7 1.6-30.1z"/>
		</g>
		<g id="&lt;Group&gt;">
			<path id="&lt;Path&gt;" class="s19" d="m590.2 253.1l-3.9 28.8h-40.4l1.7-28.8z"/>
		</g>
		<g id="&lt;Group&gt;">
			<path id="&lt;Path&gt;" class="s19" d="m590.5 259l-4 28.5-0.2-5.6 3.9-28.8z"/>
		</g>
		<g id="&lt;Group&gt;">
			<path id="&lt;Path&gt;" class="s19" d="m606.4 261.5l-4.9 28.4-0.8-15.7 4.7-29z"/>
		</g>
		<g id="&lt;Group&gt;">
			<path id="&lt;Path&gt;" class="s19" d="m603.3 259l-4.6 28.5h-12.2l4-28.5z"/>
		</g>
		<g id="&lt;Group&gt;">
			<path id="&lt;Path&gt;" class="s19" d="m591.1 271.7l-4.1 28.1-0.4-9.9 4-28.4z"/>
		</g>
		<g id="&lt;Group&gt;">
			<path id="&lt;Path&gt;" class="s19" d="m570.9 282.2l-2.9 27.7h-2.8l2.8-27.7z"/>
		</g>
		<g id="&lt;Group&gt;">
			<path id="&lt;Path&gt;" class="s19" d="m548.4 290.8l-1.8 27.3-0.3-18.3 1.7-28.1z"/>
		</g>
		<g id="&lt;Group&gt;">
			<path id="&lt;Path&gt;" class="s19" d="m571.2 290.8l-3 27.3-0.2-8.2 2.9-27.7z"/>
		</g>
		<path id="&lt;Compound Path&gt;" fill-rule="evenodd" class="s33" d="m621.7 245.2l3 45.6h-53.5-2.9-19.9l-0.4-19.1h43.1l-0.5-10.2-0.4-8.4h-42.6l-0.7-36-0.4-17.3h16.5 55.6l1.2 17.4h-41.7l0.7 17.7h42.2l0.5 7.9 0.2 2.4zm162 18.2l-1.7-10.3h42.7l-3.6-18.2-0.4-2.4-6.4-32.7h-59-13.1 10.3l4 25.9h-10.5l-3.8-25.9 4.2 28.3 9.2 62.7h13.8 3 15.9l-4.1-24.9zm2.7-46.2l3 17.8h-10.5l-2.9-17.8zm-49.6 17.8l-5-35.2h-30.9l2.1 17.4h-10.4l2 17.8h-21l-1.8-17.8h-10.4l-1.7-17.4h-30.9l1.3 17.4 0.4 5.4 0.1 0.9 2.7 36.7 2.2 30.6h32.7l-1.1-11.8-0.3-3.4-0.3-3.8-1.8-18.7h10.7l1.8 18.6h21.6l-2.1-18.6h10.6l4.6 37.7h32.7z"/>
		<path id="&lt;Compound Path&gt;" fill-rule="evenodd" class="s34" d="m752.5 199.8l4 25.9h-10.5l-3.8-25.9zm68.2 32.7h-12.3l0.5 2.4h12.2l3.5 18.2h-42.6l1.7 10.3h-18.5l4.2 27.4h-13.8l-9.2-62.7h10.5l1 6.8h10.5l-0.4-2.4h-7.6l-5.1-32.7h59zm-34.2-15.4h-10.4l3 17.8h10.5zm-2.3 48.7l4.1 24.9h-15.9l-3.9-24.9zm-124.3-66l1.4 15h-31.2l-1.1-15zm54.5 17.3l1.9 15.4h-21.8l-1.7-15.4zm17.6-17.3l4.5 32.7h-17.4l-2.2-17.7h-14l-1.8-15zm-60.1 17.3l1.8 17.8h63.2l7.8 55.8h-32.7l-4.5-37.6h-10.7l2.1 18.6h-21.5l-1.9-18.6h-10.7l1.8 18.6h-15.1l-0.9-11.6h-17.2l-3.2-43zm-24 45.5l1.6 18.9h18l0.9 9.2h-32.7l-2.1-28.1zm18.9 11.7l0.5 4.6h-15.1l-0.4-4.6zm-106.6-74.5l0.4 14.9h-13.8l-0.3-14.9zm58.4 0l1.2 17.3h-41.7l0.7 17.8h42.2l0.5 7.8h-19.1l0.9 16.2h-12.8l-0.3-5.8h-42.6l-0.7-36h16.6l-0.5-17.3zm3 45.4l3.1 45.5h-53.5l-0.3-8.6h-2.9l0.2 8.6h-19.9l-0.4-19h43.1l-0.4-10.3h15.7l-0.9-16.2z"/>
		<g id="&lt;Group&gt;">
			<path id="&lt;Path&gt;" class="s35" d="m635.6 290.8h32.7l-8.3 27.3h-30.9z"/>
			<path id="&lt;Path&gt;" class="s35" d="m744.7 290.8l-12.5 27.3h-30.9l10.7-27.3z"/>
			<path id="&lt;Path&gt;" class="s35" d="m788.3 290.8l-14.8 27.3h-2.2-18.2-10.6l13.1-27.3h13.8l-10.3 20.5h2.8l10.5-20.5z"/>
			<path id="&lt;Path&gt;" class="s35" d="m571.2 290.8h53.5l-5.9 27.3h-36.3-24.5-11.4l1.8-27.3h19.9l-1.4 13.6h2.8z"/>
		</g>
		<path id="&lt;Path&gt;" class="s36" d="m769.4 290.8h3l-10.5 20.5h-2.8z"/>
		<path id="&lt;Path&gt;" class="s36" d="m568.3 290.8h2.9l-1.5 13.6h-2.8z"/>
		<path id="&lt;Path&gt;" class="s36" d="m631.2 309.3l0.5-2.2h31.7l-0.7 2.2z"/>
		<path id="&lt;Path&gt;" class="s36" d="m722.5 305.1h-16.1l0.9-2.3h16.1z"/>
		<path id="&lt;Path&gt;" class="s35" d="m706 306.1l-1-8.6h0.5l0.9 7.6z"/>
		<g id="&lt;Group&gt;">
			<path id="&lt;Path&gt;" class="s19" d="m546.6 200.8l-0.1-1z"/>
		</g>
		<g id="&lt;Group&gt;" style="opacity: .7;mix-blend-mode: soft-light">
			<g id="&lt;Group&gt;">
				<path id="&lt;Compound Path&gt;" fill-rule="evenodd" class="s37" d="m603.3 259l0.1 1h-12.9v-1zm58-43.2h-31.2l-0.1-1h31.2zm55 16.7l0.1 1h-21.9l-0.1-1zm67.5 30.9l0.1 1h-7.4-11.2l-0.1-1zm37.1-29.9h-8.3-3.9l-0.2-1h12.2zm-52.8 0h-8.5l-5.2-33.7h1l5.1 32.7h0.1 7.5l0.1 1h-0.1zm-11.5-7.8l0.1 1h-10.5l-0.1-1h4.7zm-20 6.8l0.2 1h-18.4l-2.3-17.7h-3.4-9.6l-0.1-1h2.1 10.9 1l0.1 1 2.1 16.7h0.2zm-86 40.3l-0.9-11.6h-16.2l-0.1-1h17.2l1 11.6h15l0.1 1zm16.6 6.2l0.1 1h-16.1l-0.5-5.7h1l0.4 4.7zm-45.7-36.2l0.1 1h-8.1-11l-0.1-1zm-60.8-28v1h-13.8v-1h13.8zm207.8 51.1l3.9 24.9h-1l-3.9-24.9zm-163-20.7l0.9 16.3h-1l-0.9-16.3zm-34.5 37l0.3 8.6h-1l-0.3-7.6h-1.9v-1zm-8-82.4l0.6 17.3h-1l-0.6-17.3z"/>
			</g>
		</g>
		<g id="&lt;Group&gt;">
			<g id="&lt;Group&gt;">
				<g id="&lt;Group&gt;" style="opacity: .3;mix-blend-mode: soft-light">
					<path id="&lt;Path&gt;" class="s19" d="m772.4 290.8l-10.5 20.5h-0.4-0.6-1.8l0.5-1h1.8l10-19.5z"/>
				</g>
				<g id="&lt;Group&gt;" style="opacity: .3;mix-blend-mode: soft-light">
					<path id="&lt;Path&gt;" class="s19" d="m570.2 290.8h1l-1.5 13.6h-0.5-0.5-1.8l0.1-0.9h1.8z"/>
				</g>
				<g id="&lt;Group&gt;" style="opacity: .3;mix-blend-mode: soft-light">
					<path id="&lt;Path&gt;" class="s19" d="m631.4 308.3h31.6l-0.3 1h-31.5z"/>
				</g>
				<g id="&lt;Group&gt;" style="opacity: .3;mix-blend-mode: soft-light">
					<path id="&lt;Path&gt;" class="s19" d="m706.8 304.1h16.1l-0.4 1h-16.1z"/>
				</g>
			</g>
		</g>
		<path id="&lt;Path&gt;" class="s23" d="m621.5 242.8h-19l-0.1-1.5h19z"/>
		<path id="&lt;Path&gt;" class="s23" d="m578.1 215.7h41.6l0.1 1.5h-41.7z"/>
		<path id="&lt;Path&gt;" class="s23" d="m808.1 231h12.3l0.3 1.5h-12.3z"/>
		<path id="&lt;Path&gt;" class="s23" d="m764.9 261.9h18.6l0.2 1.5h-18.5z"/>
		<path id="&lt;Path&gt;" class="s23" d="m824.4 251.6l0.3 1.5h-42.7l-0.2-1.5z"/>
		<path id="&lt;Path&gt;" class="s23" d="m788.3 290.8h-15.9l-0.3-1.5h0.3 15.7z"/>
		<path id="&lt;Path&gt;" class="s23" d="m769.4 290.8h-13.8l-0.3-1.8h0.2l0.1 0.3h13.6z"/>
		<path id="&lt;Path&gt;" class="s23" d="m764.5 232.5h-4.1l-0.2-1.5h0.2 7.4l0.2 1.5h-3.5z"/>
		<path id="&lt;Path&gt;" class="s23" d="m756.5 225.7h-10.5l-0.2-1.5h0.2 10.3z"/>
		<path id="&lt;Path&gt;" class="s23" d="m786.2 217.2h-10.2l-0.2-1.5h10.4l0.2 1.5h-0.2z"/>
		<path id="&lt;Path&gt;" class="s23" d="m716.3 232.5h-21.8l-0.2-1.5h0.2 21.6z"/>
		<path id="&lt;Path&gt;" class="s23" d="m708 214.8h-5.2l-0.1-1.5h2.3 11.6l0.2 1.5h-8.8z"/>
		<path id="&lt;Path&gt;" class="s23" d="m736.5 232.5h-17.4l-0.2-1.5h0.2 17.2z"/>
		<path id="&lt;Path&gt;" class="s23" d="m702 253.1h-5.2l-0.2-1.5h10.7l0.1 1.5h-0.1z"/>
		<path id="&lt;Path&gt;" class="s23" d="m744.7 290.8h-32.7l-0.2-1.5h0.2 32.5z"/>
		<path id="&lt;Path&gt;" class="s23" d="m672.4 253.1h-7.6l-0.1-1.5h10.6l0.2 1.5h-0.2z"/>
		<path id="&lt;Path&gt;" class="s23" d="m698.9 271.7h-21.6l-0.1-1.5h0.1 5.1 16.3z"/>
		<path id="&lt;Path&gt;" class="s23" d="m667.2 279h-15.1l-0.1-1.5h0.1 15z"/>
		<path id="&lt;Path&gt;" class="s23" d="m668.3 290.8h-32.7l-0.1-1.5h8.5 24.2z"/>
		<path id="&lt;Path&gt;" class="s23" d="m666.6 271.8h-15.1l-0.1-1.5h0.1 14.9z"/>
		<path id="&lt;Path&gt;" class="s23" d="m650.4 260.2h-17l-0.1-1.5h0.1 17l0.1 1.5z"/>
		<path id="&lt;Path&gt;" class="s23" d="m661.2 214.8h-31.2l-0.1-1.5h0.1 31.1z"/>
		<path id="&lt;Path&gt;" class="s23" d="m569 282.2h-1v-1.5h2.9v1.5z"/>
		<path id="&lt;Path&gt;" class="s23" d="m624.7 290.8h-53.5v-1.5h3.9 49.5z"/>
		<path id="&lt;Path&gt;" class="s23" d="m568.3 290.8h-19.9l-0.1-1.5h0.1 19.8z"/>
		<path id="&lt;Path&gt;" class="s23" d="m585.6 253.1h-38v-1.5h7.7 34.9v1.5z"/>
		<path id="&lt;Path&gt;" class="s23" d="m603.3 259h-12.8l-0.1-1.5h0.1 4.4 8.4z"/>
		<path id="&lt;Path&gt;" class="s23" d="m560.7 214.8h-13.9v-1.5h13.8z"/>
		<path id="&lt;Path&gt;" class="s23" d="m631.2 309.3h31.5l-0.3 1h-31.5z"/>
		<path id="&lt;Path&gt;" class="s23" d="m706.4 305.1h16.1l-0.4 1h-16.1z"/>
		<path id="&lt;Path&gt;" class="s23" d="m759.1 311.3h2.8l-0.5 1h-2.8z"/>
		<path id="&lt;Path&gt;" class="s23" d="m566.9 304.4h2.8l-0.1 1h-2.8z"/>
		<g id="&lt;Group&gt;">
			<path id="&lt;Path&gt;" class="s19" d="m255.3 217.2l13.6 30h-9.9l-14.1-30z"/>
		</g>
		<g id="&lt;Group&gt;">
			<path id="&lt;Path&gt;" class="s19" d="m286.5 217.2l12 30h-17.4l-12.9-30z"/>
		</g>
		<g id="&lt;Group&gt;">
			<path id="&lt;Path&gt;" class="s19" d="m289.1 199.8l11.7 30.6-2.3 16.8-12-30z"/>
		</g>
		<g id="&lt;Group&gt;">
			<path id="&lt;Path&gt;" class="s19" d="m268.2 217.2l12.9 30-1.6 10.7-13.1-29.7z"/>
		</g>
		<g id="&lt;Group&gt;">
			<path id="&lt;Path&gt;" class="s19" d="m266.4 228.2l13.1 29.7h-12.3l-13.8-29.7z"/>
		</g>
		<g id="&lt;Group&gt;">
			<path id="&lt;Path&gt;" class="s19" d="m244.9 217.2l14.1 30-2.8 17.1-14.4-29.4z"/>
		</g>
		<g id="&lt;Group&gt;">
			<path id="&lt;Path&gt;" class="s19" d="m286.2 219.6l12 29.9-2.1 14.8-12.2-29.4z"/>
		</g>
		<g id="&lt;Group&gt;">
			<path id="&lt;Path&gt;" class="s19" d="m283.9 234.9l12.2 29.4h-10l-12.7-29.4z"/>
		</g>
		<g id="&lt;Group&gt;">
			<path id="&lt;Path&gt;" class="s19" d="m273.4 234.9l12.7 29.4-1.2 8.8-12.9-29.1z"/>
		</g>
		<g id="&lt;Group&gt;">
			<path id="&lt;Path&gt;" class="s19" d="m249.3 253.1l14.2 28.8h-40.4l-16.4-28.8z"/>
		</g>
		<g id="&lt;Group&gt;">
			<path id="&lt;Path&gt;" class="s19" d="m223.5 278.7l15.8 27.8h-2.8l-15.9-27.8z"/>
		</g>
		<g id="&lt;Group&gt;">
			<path id="&lt;Path&gt;" class="s19" d="m220.6 278.7l15.9 27.8-1.9 11.6-16.2-27.3z"/>
		</g>
		<g id="&lt;Group&gt;">
			<path id="&lt;Path&gt;" class="s19" d="m238.2 255.6l14.8 28.7-5.5 33.8-15.4-27.3z"/>
		</g>
		<g id="&lt;Group&gt;">
			<path id="&lt;Path&gt;" class="s19" d="m282.6 244l12.3 29.1-6.1 45-13.1-27.3z"/>
		</g>
		<path id="&lt;Path&gt;" class="s35" d="m275.7 290.8l13.1 27.3h-30.9l-14.9-27.3z"/>
		<g id="&lt;Group&gt;">
			<path id="&lt;Path&gt;" class="s19" d="m338.6 217.2l9.2 30h-9.8l-9.8-30z"/>
		</g>
		<g id="&lt;Group&gt;">
			<path id="&lt;Path&gt;" class="s19" d="m369.8 217.6l7.6 30-18.1-0.1-8.6-30z"/>
		</g>
		<g id="&lt;Group&gt;">
			<path id="&lt;Path&gt;" class="s19" d="m371.5 199.8l7.4 30.6-1.5 17.2-7.6-30z"/>
		</g>
		<g id="&lt;Group&gt;">
			<path id="&lt;Path&gt;" class="s19" d="m348.8 235.4l8.8 29.4h-11.6l-9.5-29.4z"/>
		</g>
		<g id="&lt;Group&gt;">
			<path id="&lt;Path&gt;" class="s19" d="m350.7 217.5l8.6 30-1.7 17.3-8.8-29.4z"/>
		</g>
		<g id="&lt;Group&gt;">
			<path id="&lt;Path&gt;" class="s19" d="m328.2 217.2l9.8 30-5.7 50.2-10.4-28.2z"/>
		</g>
		<g id="&lt;Group&gt;">
			<path id="&lt;Path&gt;" class="s19" d="m321.9 269.2l10.4 28.2h-14.5l-11.2-28.2z"/>
		</g>
		<g id="&lt;Group&gt;">
			<path id="&lt;Path&gt;" class="s19" d="m369.6 220l7.6 29.9-4.1 47.5-8.1-28.2z"/>
		</g>
		<g id="&lt;Group&gt;">
			<path id="&lt;Path&gt;" class="s19" d="m365 269.2l8.1 28.2h-12.1l-8.8-28.2z"/>
		</g>
		<g id="&lt;Group&gt;">
			<path id="&lt;Path&gt;" class="s19" d="m352.2 269.2l8.8 28.2-0.3 2.4-8.8-28.1z"/>
		</g>
		<g id="&lt;Group&gt;">
			<path id="&lt;Path&gt;" class="s19" d="m305.5 277.9l11.3 27.8h-16.1l-12.3-27.8z"/>
		</g>
		<g id="&lt;Group&gt;">
			<path id="&lt;Path&gt;" class="s19" d="m306.6 269.2l11.2 28.2-1 8.3-11.3-27.8z"/>
		</g>
		<g id="&lt;Group&gt;">
			<path id="&lt;Path&gt;" class="s19" d="m305.1 280.4l11.4 27.8-1.2 9.9-11.5-27.3z"/>
		</g>
		<g id="&lt;Group&gt;">
			<path id="&lt;Path&gt;" class="s19" d="m364.7 271.7l8.2 28.1-1.6 18.3-8.3-27.3z"/>
		</g>
		<g id="&lt;Group&gt;">
			<path id="&lt;Path&gt;" class="s19" d="m430.4 208.8l4.4 30.3h-2.6l-4.6-30.3z"/>
		</g>
		<g id="&lt;Group&gt;">
			<path id="&lt;Path&gt;" class="s19" d="m427.6 208.8l4.6 30.3-0.4 8.1-4.6-30z"/>
		</g>
		<g id="&lt;Group&gt;">
			<path id="&lt;Path&gt;" class="s19" d="m427.2 217.2l4.6 30h-44.5l-7-30z"/>
		</g>
		<g id="&lt;Group&gt;">
			<path id="&lt;Path&gt;" class="s19" d="m453.2 217.2l3.2 30h-22l-4.4-30z"/>
		</g>
		<g id="&lt;Group&gt;">
			<path id="&lt;Path&gt;" class="s19" d="m453.9 199.8l3.2 30.6-0.7 16.8-3.2-30z"/>
		</g>
		<g id="&lt;Group&gt;">
			<path id="&lt;Path&gt;" class="s19" d="m411.3 219.5l5.5 30-0.9 14.8-5.6-29.4z"/>
		</g>
		<g id="&lt;Group&gt;">
			<path id="&lt;Path&gt;" class="s19" d="m419.8 253.1l5.1 28.8h-40.4l-7.4-28.8z"/>
		</g>
		<g id="&lt;Group&gt;">
			<path id="&lt;Path&gt;" class="s19" d="m450.6 281.2l3.5 27.7h-30.7l-5.3-27.7z"/>
		</g>
		<g id="&lt;Group&gt;">
			<path id="&lt;Path&gt;" class="s19" d="m452.4 234.9l3.4 29.4-1.7 44.6-3.5-27.7z"/>
		</g>
		<g id="&lt;Group&gt;">
			<path id="&lt;Path&gt;" class="s19" d="m415.7 271.7l5.4 28.1-1 18.3-5.5-27.3z"/>
		</g>
		<g id="&lt;Group&gt;">
			<path id="&lt;Path&gt;" class="s19" d="m450.5 283.8l3.5 27.6-0.2 6.7-3.6-27.3z"/>
		</g>
		<g id="&lt;Group&gt;">
			<path id="&lt;Path&gt;" class="s19" d="m516.4 207.5l-0.1 30.3h-2.6l-0.1-30.3z"/>
		</g>
		<g id="&lt;Group&gt;">
			<path id="&lt;Path&gt;" class="s19" d="m513.6 217.2l0.1 30h-17.8l-1.1-30z"/>
		</g>
		<g id="&lt;Group&gt;">
			<path id="&lt;Path&gt;" class="s19" d="m513.6 207.5l0.1 30.3v9.4l-0.1-30z"/>
		</g>
		<g id="&lt;Group&gt;">
			<path id="&lt;Path&gt;" class="s19" d="m516.4 217.2l-0.1 30v-9.4l0.1-30.3z"/>
		</g>
		<g id="&lt;Group&gt;">
			<path id="&lt;Path&gt;" class="s19" d="m536.5 217.2l-1.1 30h-19.1l0.1-30z"/>
		</g>
		<g id="&lt;Group&gt;">
			<path id="&lt;Path&gt;" class="s19" d="m494.8 217.2l1.1 30-0.2 17.1-1.1-29.4z"/>
		</g>
		<g id="&lt;Group&gt;">
			<path id="&lt;Path&gt;" class="s19" d="m476.4 242.8l2.1 29.1h-13l-2.8-29.1z"/>
		</g>
		<g id="&lt;Group&gt;">
			<path id="&lt;Path&gt;" class="s19" d="m479.2 242.8l2 29.1h-2.7l-2.1-29.1z"/>
		</g>
		<g id="&lt;Group&gt;">
			<path id="&lt;Path&gt;" class="s19" d="m537 253.1l-1.2 28.8h-40.3l-1.2-28.8z"/>
		</g>
		<g id="&lt;Group&gt;">
			<path id="&lt;Path&gt;" class="s19" d="m476.3 245.2l2.1 29-0.5 23.2-2.2-28.2z"/>
		</g>
		<g id="&lt;Group&gt;">
			<path id="&lt;Path&gt;" class="s19" d="m475.7 269.2l2.2 28.2h-13.2l-2.9-28.2z"/>
		</g>
		<g id="&lt;Group&gt;">
			<path id="&lt;Path&gt;" class="s19" d="m494.1 269.2l1.2 28.2h-14.7l-2-28.2z"/>
		</g>
		<g id="&lt;Group&gt;">
			<path id="&lt;Path&gt;" class="s19" d="m494.3 253.1l1.2 28.8-0.2 15.5-1.2-28.2z"/>
		</g>
		<g id="&lt;Group&gt;">
			<path id="&lt;Path&gt;" class="s19" d="m511.9 282.3l0.2 27.7h-2.7l-0.4-27.7z"/>
		</g>
		<g id="&lt;Group&gt;">
			<path id="&lt;Path&gt;" class="s19" d="m509 282.3l0.4 27.7-0.1 8.1-0.3-27.3z"/>
		</g>
		<path id="&lt;Compound Path&gt;" fill-rule="evenodd" class="s33" d="m206.7 253.1h31.9l-6.5 37.7h-10.8-2.9-19l9-46.8zm330.8 37.6h-25.5-3-47.8l0.6-19 0.1-2.5 0.5-14.4 0.4-12.1 1.4-42.9h72.1l0.3 17.3h-20.2-2.8-18.7l-0.2 17.8h42.1l0.2 18.2h-42.6l-0.2 18.6h43.1zm-238.1-91h72.1l-1.9 20.2-4.6 49.2-0.2 2.5-1.8 19.1h-56.2-3-17.2zm22.3 71.9h10.8l3.8-33.9 2.4-20.6h-10.5zm60.2-72h72.1l-0.7 17.4h-23.2-2.8-15.7l-1.2 17.8h42.2l-1.9 46.2-0.1 2.6-0.3 7h-32.7-43.6l1.6-19h43.2l1.1-18.6h-42.6l3.1-36zm-92.7 0l-2.6 17.4-0.3 2.4-2.3 15.4h-10.5l-1.4 9h10.6l-6.9 46.8h-32.7l6.3-37.7h-10.7l1.4-7.7-31.5-1.4 8.5-44.2zm-33.8 17.4h-10.4l-3.1 17.8h10.6l0.7-4.3 0.4-2.4z"/>
		<g id="&lt;Group&gt;">
			<path id="&lt;Path&gt;" class="s35" d="m247.5 318.1h-5.7-18.4-6.8l-17.2-27.3h19l12.1 20.5h2.8l-12-20.5h10.8z"/>
			<path id="&lt;Path&gt;" class="s35" d="m371.3 318.1h-44.1-26.3-1.8l-12.5-27.3h17.2l5.8 13.6h2.8l-5.7-13.6h56.3z"/>
			<path id="&lt;Path&gt;" class="s35" d="m453.8 318.1h-24.4-26.3-21.5l-7.7-27.3h40.7l2.7 13.6h2.9l-2.7-13.6h32.7z"/>
			<path id="&lt;Path&gt;" class="s35" d="m537.5 290.8l-1.2 27.3h-24.2-2.8-45.2l-3-27.3h47.9l0.2 20.5h2.9l-0.2-20.5z"/>
		</g>
		<path id="&lt;Compound Path&gt;" fill-rule="evenodd" class="s38" d="m238.2 255.6l-6.1 35.2h-10.8l2.2-12.1h-2.9l-2.2 12.1h-19l6.8-35.2zm50.9-55.8l-2.6 17.4h-18.3l-1.8 11h-13l1.9-11h-10.4l-3.1 17.7h10.5l0.7-4.3h15.8l1.8-11h15.6l-2.3 15.3h-10.5l-1.4 9.1h10.6l-6.9 46.8h-32.7l6.3-37.7h-42.6l10.3-53.3zm82.4 0l-1.7 17.8-19.1-0.1-1.9 17.9h-12.3l2.1-18.2h-10.4l-6.3 52h-15.3l-1.1 8.7h-17.1l11-78.1zm-66.3 80.6l-1.4 10.4h-17.2l1.5-10.4zm64.4-60.4l-4.6 49.2h-12.8l-0.2 2.5h12.8l-1.8 19.1h-56.2l2.4-19.1h23.3l3.8-33.8h15.1l1.9-17.9zm84.3-20.2l-0.7 17.4h-23.2l0.4-8.4h-2.8l-0.4 8.4h-46.9l1.5-17.4zm-42.5 19.7l-1.1 15.4h42.2l-1.9 46.3h-32.5l1.7-28.1h-42.7l3-33.6zm4.4 52.2l-1.2 19.1h-40.7l1.6-19.1zm34.8 12.1l-0.3 7h-32.7l0.4-7zm25.8-38.6l-0.6 24h-13.8l0.8-24zm59.9-45.4l0.2 17.4h-20.1v-9.7h-2.8v9.7h-18.7l-0.3 17.7h42.2l0.2 18.2h-42.6l-0.2 16.1h-15.5l0.6-26.4h-16.5l1.4-43zm0.9 71.9l0.3 19.1h-25.6l0.1-8.5h-3v8.5h-47.9l0.7-19.1z"/>
		<path id="&lt;Path&gt;" class="s36" d="m218.4 290.8h2.9l12 20.5h-2.8z"/>
		<path id="&lt;Path&gt;" class="s36" d="m303.8 290.8h2.9l5.7 13.6h-2.8z"/>
		<path id="&lt;Path&gt;" class="s36" d="m414.6 290.8h2.9l2.7 13.6h-2.9z"/>
		<path id="&lt;Path&gt;" class="s36" d="m509 290.8h2.9l0.2 20.5h-2.9z"/>
		<path id="&lt;Path&gt;" class="s36" d="m284.6 309.3h-31.5l-1.2-2.2h31.6z"/>
		<path id="&lt;Path&gt;" class="s36" d="m367.2 304.6h-19.8l-0.7-2.3h19.8z"/>
		<path id="&lt;Path&gt;" class="s36" d="m482.4 304.6h-19.8l-0.2-2.3h19.7z"/>
		<path id="&lt;Path&gt;" class="s36" d="m621.7 304.6h-19.7l0.4-2.3h19.8z"/>
		<g id="&lt;Group&gt;" style="opacity: .7;mix-blend-mode: soft-light">
			<path id="&lt;Path&gt;" class="s37" d="m478.6 269.2h15.5v1h-15.5z"/>
		</g>
		<g id="&lt;Group&gt;" style="opacity: .7;mix-blend-mode: soft-light">
			<path id="&lt;Path&gt;" class="s37" d="m418.1 281.2h32.5v1h-32.6z"/>
		</g>
		<g id="&lt;Group&gt;" style="opacity: .7;mix-blend-mode: soft-light">
			<path id="&lt;Path&gt;" class="s37" d="m206.7 253.1h31.9l-0.1 1h-32z"/>
		</g>
		<g id="&lt;Group&gt;" style="opacity: .7;mix-blend-mode: soft-light">
			<path id="&lt;Path&gt;" class="s37" d="m268.2 217.2h18.3l-0.1 1h-10.7-6.7l-1.7 11h-9.2-4.8l0.1-1h12.9 0.1l1.6-10z"/>
		</g>
		<g id="&lt;Group&gt;" style="opacity: .7;mix-blend-mode: soft-light">
			<path id="&lt;Path&gt;" class="s37" d="m321.9 269.2l-0.1 1h-10.1-4.2l-1.2 8.7h-18l0.1-1h14.9 2.2l1-7.7 0.1-1h1 14.3z"/>
		</g>
		<g id="&lt;Group&gt;" style="opacity: .7;mix-blend-mode: soft-light">
			<path id="&lt;Path&gt;" class="s37" d="m352.2 269.2h12.8l-0.1 1h-8.2-4.5-0.1z"/>
		</g>
		<g id="&lt;Group&gt;" style="opacity: .7;mix-blend-mode: soft-light">
			<path id="&lt;Path&gt;" class="s37" d="m369.8 217.5l-0.1 1.1-18.1-0.1-1.9 17.9h-13.3l0.1-1h12.2 0.1l1.8-16.8 0.1-1.1h1l18.1 0.1z"/>
		</g>
		<g id="&lt;Group&gt;" style="opacity: .7;mix-blend-mode: soft-light">
			<path id="&lt;Path&gt;" class="s37" d="m380.3 217.2h31.2l-0.1 1h-25.6-5.6z"/>
		</g>
		<g id="&lt;Group&gt;" style="opacity: .7;mix-blend-mode: soft-light">
			<path id="&lt;Path&gt;" class="s37" d="m510.9 282.3h1v1 7.5h-1v-7.5h-0.9-1v-1z"/>
		</g>
		<g id="&lt;Group&gt;" style="opacity: .7;mix-blend-mode: soft-light">
			<path id="&lt;Path&gt;" class="s37" d="m470.3 243.8h-7.6v-1h13.7 2.8v1h-2.8z"/>
		</g>
		<g id="&lt;Group&gt;" style="opacity: .7;mix-blend-mode: soft-light">
			<path id="&lt;Path&gt;" class="s37" d="m305.1 280.4h1l-1.3 10.4h-1z"/>
		</g>
		<g id="&lt;Group&gt;" style="opacity: .7;mix-blend-mode: soft-light">
			<path id="&lt;Path&gt;" class="s37" d="m428.2 217.2h-1l0.4-8.4h2.8v1h-1.3-0.5z"/>
		</g>
		<g id="&lt;Group&gt;" style="opacity: .7;mix-blend-mode: soft-light">
			<path id="&lt;Path&gt;" class="s37" d="m515.4 217.2v-8.7h-1.8v-1h1.8 1v1 8.7z"/>
		</g>
		<g id="&lt;Group&gt;" style="opacity: .7;mix-blend-mode: soft-light">
			<path id="&lt;Path&gt;" class="s37" d="m415.7 271.7h1l-1.1 19.1h-1z"/>
		</g>
		<g id="&lt;Group&gt;" style="opacity: .7;mix-blend-mode: soft-light">
			<path id="&lt;Path&gt;" class="s37" d="m476.3 245.2h1l-0.6 25h-8.4-6.5v-1h13.9z"/>
		</g>
		<g id="&lt;Group&gt;" style="opacity: .7;mix-blend-mode: soft-light">
			<path id="&lt;Path&gt;" class="s37" d="m221.6 278.7h1.9l-0.2 1h-1-0.9l-2 11.1h-1l2.2-12.1z"/>
		</g>
		<g id="&lt;Group&gt;" style="opacity: .3;mix-blend-mode: soft-light">
			<path id="&lt;Path&gt;" class="s19" d="m621.7 304.6h-19.7l0.2-1h19.7z"/>
		</g>
		<g id="&lt;Group&gt;">
			<g id="&lt;Group&gt;" style="opacity: .3;mix-blend-mode: soft-light">
				<path id="&lt;Path&gt;" class="s19" d="m512.1 311.3h-0.2-0.8-1.9v-1h1.9l-0.2-19.5h1z"/>
			</g>
			<g id="&lt;Group&gt;" style="opacity: .3;mix-blend-mode: soft-light">
				<path id="&lt;Path&gt;" class="s19" d="m482.3 303.6l0.1 1h-19.8l-0.1-1z"/>
			</g>
			<g id="&lt;Group&gt;" style="opacity: .3;mix-blend-mode: soft-light">
				<path id="&lt;Path&gt;" class="s19" d="m366.9 303.6l0.3 1h-19.8l-0.3-1z"/>
			</g>
			<g id="&lt;Group&gt;" style="opacity: .3;mix-blend-mode: soft-light">
				<path id="&lt;Path&gt;" class="s19" d="m284.1 308.4l0.5 0.9h-31.5l-0.5-0.9z"/>
			</g>
			<g id="&lt;Group&gt;" style="opacity: .3;mix-blend-mode: soft-light">
				<path id="&lt;Path&gt;" class="s19" d="m232.7 310.3l0.6 1h-1.8-0.8-0.2l-12.1-20.5h1l11.5 19.5z"/>
			</g>
			<g id="&lt;Group&gt;" style="opacity: .3;mix-blend-mode: soft-light">
				<path id="&lt;Path&gt;" class="s19" d="m312 303.5l0.4 0.9h-1.8-0.8-0.2l-5.8-13.6h1l5.4 12.7z"/>
			</g>
			<g id="&lt;Group&gt;" style="opacity: .3;mix-blend-mode: soft-light">
				<path id="&lt;Path&gt;" class="s19" d="m420 303.5l0.2 0.9h-1.9-0.8-0.2l-2.7-13.6h1l2.5 12.7z"/>
			</g>
		</g>
		<path id="&lt;Path&gt;" class="s23" d="m419.8 253.1h-42.7l0.2-1.5h42.5z"/>
		<path id="&lt;Path&gt;" class="s23" d="m249.3 253.1h-42.6l0.3-1.5h42.5z"/>
		<path id="&lt;Path&gt;" class="s23" d="m476.4 242.8h-13.7l0.1-1.5h13.6 2.9l-0.1 1.5z"/>
		<path id="&lt;Path&gt;" class="s23" d="m537.4 289.3l0.1 1.5h-25.6v-1.5z"/>
		<path id="&lt;Path&gt;" class="s23" d="m255.5 215.7l-0.2 1.5h-7.1-3.3l0.2-1.5z"/>
		<g id="&lt;Group&gt;">
			<path id="&lt;Path&gt;" class="s23" d="m286.7 215.7l-0.2 1.5h-11.7-6.6l0.2-1.5h18.1z"/>
			<path id="&lt;Path&gt;" class="s23" d="m266.6 226.7l-0.2 1.5h-13l0.3-1.5h12.7z"/>
		</g>
		<path id="&lt;Path&gt;" class="s23" d="m284.1 233.4l-0.2 1.5h-10.3-0.2l0.2-1.5h10.3z"/>
		<path id="&lt;Path&gt;" class="s23" d="m275.9 289.3l-0.2 1.5h-32.7l0.3-1.5h32.4z"/>
		<path id="&lt;Path&gt;" class="s23" d="m232.4 289.3l-0.3 1.5h-10.8l0.3-1.5h10.5z"/>
		<g id="&lt;Group&gt;">
			<path id="&lt;Path&gt;" class="s23" d="m218.6 289.3l-0.2 1.5h-19l0.3-1.5h16.9z"/>
			<path id="&lt;Path&gt;" class="s23" d="m223.8 277.2l-0.3 1.5h-0.4-2.3-0.2l0.2-1.5z"/>
		</g>
		<path id="&lt;Path&gt;" class="s23" d="m304 289.3l-0.2 1.5h-17.2l0.2-1.5h17z"/>
		<path id="&lt;Path&gt;" class="s23" d="m363.1 289.3l-0.1 1.5h-56.3l0.2-1.5h56.1z"/>
		<path id="&lt;Path&gt;" class="s23" d="m365.1 267.7l-0.1 1.5h-5.8-7l0.1-1.5h8.5 4.2z"/>
		<g id="&lt;Group&gt;">
			<path id="&lt;Path&gt;" class="s23" d="m349 233.9l-0.2 1.5h-12.3l0.2-1.5h12.1z"/>
			<path id="&lt;Path&gt;" class="s23" d="m369.9 216.1l-0.1 1.5-18.9-0.1h-0.2l0.2-1.5 7.5 0.1h11.4z"/>
		</g>
		<g id="&lt;Group&gt;">
			<path id="&lt;Path&gt;" class="s23" d="m305.7 276.4l-0.2 1.5h-17.1l0.2-1.5h16.9z"/>
			<path id="&lt;Path&gt;" class="s23" d="m322.1 267.7l-0.2 1.5h-11.3-4l0.2-1.5h15.1z"/>
			<path id="&lt;Path&gt;" class="s23" d="m338.8 215.7l-0.2 1.5h-5.9-4.5l0.2-1.5z"/>
		</g>
		<path id="&lt;Path&gt;" class="s23" d="m414.6 289.3v1.5h-40.7l0.1-1.5h40.6z"/>
		<path id="&lt;Path&gt;" class="s23" d="m450.3 289.3l-0.1 1.5h-32.7l0.1-1.5h32.6z"/>
		<path id="&lt;Path&gt;" class="s23" d="m450.7 279.6l-0.1 1.6h-32.5l0.1-1.5h32.4v-0.1z"/>
		<path id="&lt;Path&gt;" class="s23" d="m453.2 215.7v1.5h-23.2v-1.5h17.1z"/>
		<g id="&lt;Group&gt;">
			<path id="&lt;Path&gt;" class="s23" d="m427.2 215.7v1.5h-46.9l0.1-1.5h46.8z"/>
			<path id="&lt;Path&gt;" class="s23" d="m430.5 207.3l-0.1 1.5h-0.9-1.9l0.1-1.5z"/>
		</g>
		<g id="&lt;Group&gt;">
			<path id="&lt;Path&gt;" class="s23" d="m513.6 207.5v-1.5h2.8v1.5h-2.8z"/>
			<path id="&lt;Path&gt;" class="s23" d="m513.6 215.7v1.5h-18.8v-1.5h18.8z"/>
			<path id="&lt;Path&gt;" class="s23" d="m536.5 217.2h-20.1v-1.5h0.9 19.2z"/>
		</g>
		<g id="&lt;Group&gt;">
			<path id="&lt;Path&gt;" class="s23" d="m494.3 253.1l0.1-1.5h42.5l0.1 1.5h-42.6z"/>
			<path id="&lt;Path&gt;" class="s23" d="m494.1 267.7v1.5h-15.5l0.1-1.5h12.1 3.3z"/>
		</g>
		<path id="&lt;Path&gt;" class="s23" d="m475.8 267.7l-0.1 1.5h-13.9l0.1-1.5h13.8z"/>
		<g id="&lt;Group&gt;">
			<path id="&lt;Path&gt;" class="s23" d="m509 289.3v1.5h-47.9l0.1-1.5h45z"/>
			<path id="&lt;Path&gt;" class="s23" d="m511.9 280.8v1.5h-0.5-2.4v-1.5z"/>
		</g>
		<path id="&lt;Path&gt;" class="s23" d="m621.5 305.6h-19.8l0.3-1h19.7z"/>
		<path id="&lt;Path&gt;" class="s23" d="m367.5 305.6h-19.8l-0.3-1h19.8z"/>
		<path id="&lt;Path&gt;" class="s23" d="m482.5 305.6h-19.8l-0.1-1h19.8z"/>
		<path id="&lt;Path&gt;" class="s23" d="m285.1 310.3h-31.5l-0.5-1h31.5z"/>
		<path id="&lt;Path&gt;" class="s23" d="m233.9 312.3h-2.8l-0.6-1h2.8z"/>
		<path id="&lt;Path&gt;" class="s23" d="m312.8 305.4h-2.8l-0.4-1h2.8z"/>
		<path id="&lt;Path&gt;" class="s23" d="m420.4 305.4h-2.9l-0.2-1h2.9z"/>
		<path id="&lt;Path&gt;" class="s23" d="m512.1 312.3h-2.9v-1h2.9z"/>
		<path id="&lt;Path&gt;" class="s39" d="m450.6 281.2l-6.6 8.3 4.3 3.1-6.3-0.5-1.8 2.2 4.9 17h6l-4.7 4.4 0.7 2.4h-7.4l-5-26.7 16.2-16.8z"/>
		<path id="&lt;Path&gt;" class="s40" d="m440.2 318.1h9.3l-6.6 3.6z"/>
		<path id="&lt;Path&gt;" class="s40" d="m454 272.4l-3.4 9.5 0.3-7.3z"/>
		<path id="&lt;Path&gt;" class="s39" d="m494.8 290.8l4-16.5-2 18.7 9 13.8 5.8-1.1-4 3.8 5.6 8.6h-8.2l-10.9-25.1z"/>
		<path id="&lt;Path&gt;" class="s40" d="m507.8 318.1h10.1l-6.6 3.6z"/>
		<path id="&lt;Path&gt;" class="s40" d="m517.3 233.5l3.1 1.5h-7.9z"/>
		<path id="&lt;Path&gt;" class="s41" d="m508.8 253.1l10.8 11.6-4.4 1.6-14.2-12.2z"/>
		<path id="&lt;Path&gt;" class="s39" d="m520.4 235l-3.4 6.2 4.5 3.7-6-0.9-4.9 9.1h-1.8l7.9-18.1z"/>
		<path id="&lt;Path&gt;" class="s39" d="m497.3 229.8l-2.7 3.3v-5.2z"/>
		<path id="&lt;Path&gt;" class="s42" d="m459.4 209.9l4.3 4.9-0.5 14.6-3-5.1z"/>
		<path id="&lt;Path&gt;" class="s39" d="m471.9 212.3l22.7 15.6v5.2l-1.6-4-14.6-9.8-1.7-1-5.2-3-8 3.9 0.2-4.4z"/>
		<path id="&lt;Path&gt;" class="s43" d="m494.8 217.2l2.5 12.6-19.9-13.7-2.9-2-2.6-1.8-8.2 2.5-4.3-4.9 4.2-1.6 2.4-7.6 1.7 6 3.5-1.3z"/>
		<path id="&lt;Path&gt;" class="s44" d="m514.7 239.5l-5.9 13.6-7.8 1 1.2-5.1 0.8-3.9 2.5-10.7 11.8-0.9-1.1 2.5 4.2 5.4z"/>
		<path id="&lt;Path&gt;" class="s45" d="m447.9 290.5l-6.8-2.4-4.6 5.5h-6.7l11-16.7 2.5-3.9 9.4-13.7 1.3 13.1-10.4 12.6z"/>
		<path id="&lt;Path&gt;" class="s46" d="m498.8 274.3l-3.7 18.7h-6.8l2.4-4.3-4.3-5.5 6.2 2.1z"/>
		<path id="&lt;Path&gt;" class="s47" d="m488.3 293h6.8l8.1 14.3 6.5-1.2-4.6 4.5 6.2 11.1-8.6-1.7z"/>
		<path id="&lt;Path&gt;" class="s48" d="m442.1 318.1l0.8 3.6-9.1-2.5-2-13-0.7-4.1-1.3-8.5h6.7l4.6 20.1 7.2-1.4-6.1 6z"/>
		<path id="&lt;Path&gt;" class="s49" d="m505.5 234.4l11.8-0.9-1.1 2.5 4.2 5.4-5.7-1.9-0.3 0.7-2.7 1.2-2-2.2-3.5 1.6-1.8-1.6z"/>
		<path id="&lt;Path&gt;" class="s49" d="m503 245.1l3.2-1.1 2.1 2.1 1.9-1 1.1 2.4-2.5 5.6-7.8 1 1.2-5.1z"/>
		<path id="&lt;Path&gt;" class="s49" d="m471.9 212.3l-8.2 2.5-4.3-4.9 4.2-1.6 2.5-3.8 1.6 2.2 3.5-1.3 7.5 3.7 0.9 2.5h-3.1l0.1 2.3-2.1 0.2z"/>
		<path id="&lt;Path&gt;" class="s49" d="m494.8 217.2l2.5 12.6-12-8.3-1-2.5h3.5l-1-3.3 4.2-0.4z"/>
		<path id="&lt;Path&gt;" class="s49" d="m452.7 259.3l1.3 13.1-1.8 2.2-2.7 1v-3.4l-4.6 1.9-0.1-3.3z"/>
		<path id="&lt;Path&gt;" class="s49" d="m441.1 288.1l-4.6 5.5 2.1 9.1-1.6 4.2-3.9-3.4-1.3 2.7-0.7-4.1-1.3-8.5 9.2-14 0.5 3.5 3.1-0.8 1 2.7 4.3 5.5z"/>
		<path id="&lt;Path&gt;" class="s49" d="m433 313.9l3.8 1.8 1.8-3.3 2.5 1.3 7.2-1.4-6.1 6 0.7 3.4-9.1-2.5z"/>
		<path id="&lt;Path&gt;" class="s49" d="m492.6 285.3l1.5 1.6 2.4-1-1.4 7.1h-6.8l2.4-4.3-4.3-5.5z"/>
		<path id="&lt;Path&gt;" class="s49" d="m502.7 320l-1.9-3.6 1.5-2.5 2.7 1.8 1.5-2.5 4.8 8.5z"/>
		<path id="&lt;Path&gt;" class="s49" d="m488.3 293h6.8l5.5 9.7-4.1-3.1-0.2 2.7-4.4-2.5z"/>
		<path id="&lt;Path&gt;" class="s49" d="m508.8 253.1l7.1 7.6-5.6-2.3 0.3 2.1-4.1-1.6-5.5-4.8z"/>
		<g id="&lt;Group&gt;">
			<path id="&lt;Path&gt;" class="s16" d="m509.7 306.1l-7.1 2.3-8.5-15.4 4.7-18.7-3.7 18.7 8.1 14.3z"/>
			<path id="&lt;Path&gt;" class="s16" d="m505.1 310.6l6.2 11.1-1.6-0.3-5.3-10.1z"/>
			<path id="&lt;Path&gt;" class="s16" d="m513.9 239.2l0.8 0.3-5.9 13.6-7.8 1 7.2-1.7z"/>
			<path id="&lt;Path&gt;" class="s16" d="m520.4 241.4l-5.2-5 1.2-2.9h0.9l-1.1 2.5z"/>
			<path id="&lt;Path&gt;" class="s16" d="m490.7 288.7l-4.3-5.5 4.8 4.7z"/>
			<path id="&lt;Path&gt;" class="s16" d="m453.8 271.3l0.2 1.1-10.4 12.6 4.3 5.5-5.3-5.5 10.4-12.6-0.3-13.1z"/>
			<path id="&lt;Path&gt;" class="s16" d="m436.5 293.6l4.6 20.1-0.8 0.2-4.8-20.3 4.6-5.8 1 0.3z"/>
			<path id="&lt;Path&gt;" class="s16" d="m448.3 312.3l-6.1 6 0.7 3.4-0.8-0.3-0.9-3.3z"/>
			<path id="&lt;Path&gt;" class="s16" d="m497.3 229.8l-22.8-15.7-2.6-1.8-8.2 2.5-0.5 14.6-0.1-15.2 8.8-2.6 3.4 2.3 21 14.1-1.5-10.8z"/>
			<path id="&lt;Path&gt;" class="s16" d="m465.1 207.7l-1.5 0.6 2.4-7.6z"/>
		</g>
		<path id="&lt;Compound Path&gt;" fill-rule="evenodd" class="s50" d="m723.2 249.3h5.4l1 7.6h-5.4zm-82.7-43.4l0.2 2.7h-3.2l-0.2-2.7zm2 36h3.2l0.3 2.8h-3.3zm18.4 26.7h-5.5l-0.7-7.8h5.5zm-10.3-45.9h-6.9l-0.4-4.3h6.9zm-6.3 62.4h-3.3l-0.3-2.9h3.3zm0.3-25.1h-3.3l-0.2-2.8h3.2zm59.4-16.1h-5.9l-0.8-7.1h5.9zm-23.7 10.9h7l0.5 4.5h-7.1zm40-25.4l-0.6-4.5h5.3l0.6 4.5zm3 51l-0.6-4.8h5.5l0.6 4.8zm9.5-12.7h3.3l0.4 2.9h-3.3zm-4.5-56.2h-7.8l-1.1-8.6h7.7zm-89.8 54.9h7l0.4 4.6h-7.1zm-115.2-14.9h-5.4v-7.6h5.4zm-30.5-13h7v4.4h-7zm173.1-5.2h-5.3l-0.7-7.4h5.3zm-346.9 27.7h-6l0.9-7.2h6zm2.4-30.8h-12.8l1.7-13.7h12.7zm28.4 39.8h-8.7l0.8-7.5h8.7zm2.2-30.4l-0.4 3.7h-4.4l0.4-3.7zm-43.3-33.4l-0.5 3.6h-4.3l0.5-3.6zm4.3 40.5h-5.4l0.8-6.6h5.4zm34.1-41h5.3l-0.5 4.4h-5.2zm-24.6 75h5.5l-0.5 4.8h-5.5zm-11.7-3.8l0.4-2.9h3.3l-0.4 2.9zm266-65.9l0.1 2.7h-3.2l-0.1-2.7zm29.4-3h-3.2l-0.1-2.6h3.1zm-17.8 34h-3.3l-0.1-2.7h3.2zm13.6 14.3h-3.2l-0.2-2.8h3.3zm-379.8-11.1h7l-0.8 4.5h-7zm579.6-2.6h7l0.8 4.4h-7zm-25.3-38.8h6.8l0.7 4.2h-6.8zm-302.6-1.6h6.8v4.2h-6.9zm-206.7-0.5h11.3l-1.8 12.6h-11.4zm257.7 74.1h3.3v2.8h-3.3zm-299.6-41h-11.5l2.4-12.7h11.4zm35.5 41h-7.1l0.7-4.6h7.1zm244 10.3v-2.9h3.3v2.9zm-247-75.3h-3.1l0.4-2.7h3.1zm314.9-4.2h-6.9l-0.1-4.3h6.8zm-302.3 59.2h5.5l-1.1 7.8h-5.5zm341.6-17.8h5.4l0.5 7.5h-5.4zm1.4 21.4h5.5l0.5 7.8h-5.5zm-115.9-64.2h5.3l-0.1 7.2h-5.2zm67.6 76.3h-11.8l-0.2-6.8h11.8zm-130.6-78.3l-0.1 2.7h-3.2l0.2-2.7zm-51 5.5h3.2l-0.2 2.7h-3.2zm19.9 72.3l-0.3 4.8h-9l0.3-4.8zm-3.9-55h-6.9l0.3-4.3h6.9zm-16 60.3h-3.3l0.2-3h3.4zm11.3-40.6h-9.4l0.8-10.4h9.4zm19.6 32.4h-3.3l0.1-2.9h3.3zm69.2-47.9h-7.2l0.2-8h7.1zm-247.9-17.6h-5.2l1.2-7.3h5.3zm201.2 66.4h-6.1l0.4-7.4h6.1zm10.7-19l-0.2 3.9h-4.4l0.1-3.9zm-15.7 3h-5.4l0.3-6.8h5.5zm-183.5 22.9l0.4-2.9h3.3l-0.4 2.9zm180.4-35l0.5-9.9h15.1l-0.4 9.9zm-172.1-16.6h6.9l-0.7 4.4h-7zm304.1 5.7h7l0.1 4.4h-7zm-351.8 34.7h7.1l-0.8 4.6h-7.2zm320.9-66.3h-3.1l-0.1-2.7h3.2zm24.6 11.6h11.4l0.4 12.8h-11.4zm217 48.3h7.8l1.4 8.9h-7.8zm-508.3-10.5h-3.3l0.5-2.8h3.2zm502.8-34h-3.2l-0.4-2.7h3.2zm5.3 20.8h5.3l1.3 7.6h-5.4zm31.3-38.5h5.3l1.4 7.2h-5.3zm-46.8 58l-0.4-2.8h3.3l0.4 2.8zm-9.9-52.5h6.8l0.7 4.3h-6.9zm11.6 30.5h-3.3l-0.4-2.7h3.2zm31.6 0.7h-3.2l-0.5-2.8h3.2zm4.1-28.3h-3.1l-0.5-2.6h3.2zm-568.6 52.6h-3.3l0.5-2.9h3.3zm248.6-26.6h-3.2l0.1-2.7h3.2zm0.9 24.9h-5.5l0.1-4.7h5.5zm10.4 16.6h-5.5l0.2-9.2h5.5zm2.7-28.3h-7v-4.4h7.1z"/>
	</g>
</svg>